<?xml version="1.0" encoding="utf-8"?>
<!-- Generator: Adobe Illustrator 16.0.3, SVG Export Plug-In . SVG Version: 6.00 Build 0)  -->
<!DOCTYPE svg PUBLIC "-//W3C//DTD SVG 1.1//EN" "http://www.w3.org/Graphics/SVG/1.1/DTD/svg11.dtd">
<svg version="1.1" id="Capa_1" xmlns="http://www.w3.org/2000/svg" xmlns:xlink="http://www.w3.org/1999/xlink" x="0px" y="0px"
	 width="668px" height="528px" viewBox="328.5 252.5 668 528" enable-background="new 328.5 252.5 668 528" xml:space="preserve">
<desc>Created with Fabric.js 5.3.0</desc>
<g id="background-logo" transform="matrix(1 0 0 1 640 512)" display="none">
	<rect x="-312.499" y="-259.5" display="inline" fill="#041C34" width="668" height="528.001"/>
</g>
<g id="logo-logo" transform="matrix(1.9211538461538462 0 0 1.9211538461538462 656.7465410140965 519.4843970709142)">
	<g>
		<g transform="matrix(0.5443753903372861 0.4253126678945055 -0.42531266789450556 0.5443753903372862 0 -42.08043383112633)">
			<g>
				<g transform="matrix(1 0 0 1 -111.19843380320638 43.5103153739914)">
					<path fill="#FF914D" d="M-4.776,12.693c-13.116,28.512-8.764,57.72-8.764,57.72C-18.02,44.68-18.114,3.516-3.176-21.057
						C-3.176-21.057,8.341-15.818-4.776,12.693z M4.186-66.703c-17.368,24.147-15.63,63.962-15.63,63.962s0.447-21.24,16.043-40.372
						C20.197-62.244,4.186-66.703,4.186-66.703z"/>
				</g>
				<g transform="matrix(1 0 0 1 0.8074318671097984 0)">
					
						<linearGradient id="SVGID_1_" gradientUnits="userSpaceOnUse" x1="-1158.6245" y1="8723.2217" x2="-1158.6245" y2="8499.084" gradientTransform="matrix(1.0458 -0.8171 -0.8171 -1.0458 8337.0264 8066.0703)">
						<stop  offset="0" style="stop-color:#1C72D4"/>
						<stop  offset="0.75" style="stop-color:#FAFCFE"/>
					</linearGradient>
					<path fill="url(#SVGID_1_)" d="M-125.545,113.925c0,0-0.408-3.748-0.971-9.177c-0.227-8.792,0.205-20.535,3.052-31.19
						c-4.576-29.591,11.186-51.532,11.186-51.532s-0.747-0.339-2.024-0.665c19.333-24.384,53.914-43.238,88.689-50.535
						C-25.613-29.173-132.101,22.934-125.545,113.925z M-51.227-98.937c-0.219,1.525-0.375,2.456-0.414,2.34
						c-0.194-0.582-16.224,10.645-27.029,24.433c-4.374,7.163-8.097,13.738-11.315,19.716c25.786-22.369,75.139-39.183,176.89-14.17
						l34.911-22.312C106.697-102.497,8.256-123.364-51.227-98.937L-51.227-98.937z M-104.709-26.561
						c0.547,1.99,0.876,3.368,0.876,3.368s-8.924,10.133-10.131,27.336c-8.685,19.458-9.485,36.626-9.485,36.626
						C-120.196-11.32-30.802-57.7,44.282-36.986L69.43-55.522C-15.183-83.162-76.81-55.244-104.709-26.561z"/>
				</g>
				<g transform="matrix(1 0 0 1 1.993197837905626 -20.181149258609167)">
					<path fill="#FF914D" d="M-26.799-8.993c-42.807,8.972-86.573,45.504-95.379,72.816c-3.301,10.241-3.739,20.392-2.472,29.915
						l0,0c-2.504-17.854,1.692-35.663,8.281-51.104C-97.213,17.718-62.095-1.586-26.799-8.993z M-115.406,29.588l0.004,0.001
						c-0.001-0.016-0.001-0.033-0.001-0.049C-115.404,29.556-115.405,29.571-115.406,29.588z M68.245-35.341
						c-87.926-28.722-151.02,2.548-177.25,32.329c-2.769,7.03-5.327,16.24-6.144,27.336c1.575-13.624,10.673-28.772,36.926-45.288
						C-35.741-47.691,25.312-49.225,68.245-35.341z M-60.338-75.096c-7.284,6.155-14.265,13.771-19.518,23.114
						c1.42-2.083,3.009-4.041,4.831-5.812C-41.835-90.036,45.7-97.778,120.631-68.749C104.818-82.938-2.135-105.109-60.338-75.096z"
						/>
				</g>
			</g>
		</g>
		
			<g transform="matrix(-0.5517152088716167 -0.41574723014851567 0.4157472301485158 -0.551715208871617 5.684342e-14 42.453547389352025)">
			<g>
				<g transform="matrix(1 0 0 1 -111.19843380320638 43.5103153739914)">
					<path fill="#FF914D" d="M0.006,9.025c-13.116,28.512-8.764,57.72-8.764,57.72c-4.481-25.734-4.574-66.898,10.364-91.47
						C1.606-24.725,13.123-19.487,0.006,9.025z M8.968-70.372C-8.399-46.225-6.662-6.41-6.662-6.41s0.447-21.24,16.044-40.372
						S8.968-70.372,8.968-70.372z"/>
				</g>
				<g transform="matrix(1 0 0 1 0.8074318671097984 0)">
					
						<linearGradient id="SVGID_2_" gradientUnits="userSpaceOnUse" x1="997.829" y1="-8475.5947" x2="997.829" y2="-8251.458" gradientTransform="matrix(-1.0599 0.7987 0.7987 1.0599 7829.6133 8072.6758)">
						<stop  offset="0" style="stop-color:#1C72D4"/>
						<stop  offset="0.75" style="stop-color:#FAFCFE"/>
					</linearGradient>
					<path fill="url(#SVGID_2_)" d="M-120.763,110.255c0,0-0.407-3.747-0.971-9.177c-0.227-8.791,0.206-20.535,3.053-31.188
						c-4.576-29.591,11.185-51.533,11.185-51.533s-0.746-0.339-2.024-0.664C-90.186-6.69-55.605-25.545-20.83-32.842
						C-20.83-32.842-127.318,19.266-120.763,110.255z M-46.444-102.605c-0.22,1.525-0.375,2.456-0.414,2.341
						c-0.194-0.582-16.224,10.645-27.029,24.433c-4.374,7.163-8.098,13.738-11.315,19.716c25.785-22.37,75.138-39.183,176.89-14.17
						L126.6-92.598C111.48-106.165,13.038-127.032-46.444-102.605z M-99.927-30.23c0.547,1.991,0.876,3.369,0.876,3.369
						s-8.924,10.133-10.132,27.336c-8.684,19.458-9.486,36.626-9.486,36.626c3.254-52.089,92.648-98.469,167.732-77.755
						l25.148-18.534C-10.4-86.83-72.027-58.912-99.927-30.23z"/>
				</g>
				<g transform="matrix(1 0 0 1 1.993197837905626 -20.181149258609167)">
					<path fill="#FF914D" d="M-22.016-12.661c-42.807,8.971-86.573,45.504-95.379,72.817c-3.302,10.24-3.74,20.392-2.472,29.915l0,0
						c-2.504-17.855,1.693-35.663,8.282-51.104C-92.43,14.05-57.313-5.255-22.016-12.661z M-110.623,25.919l0.004,0.001
						c0-0.017-0.002-0.034-0.001-0.051C-110.621,25.887-110.623,25.903-110.623,25.919z M73.027-39.009
						C-14.899-67.731-77.994-36.461-104.224-6.681c-2.768,7.03-5.327,16.24-6.144,27.336c1.575-13.623,10.673-28.773,36.925-45.288
						C-30.958-51.359,30.094-52.894,73.027-39.009z M-55.556-78.765c-7.283,6.155-14.264,13.771-19.517,23.114
						c1.42-2.083,3.009-4.042,4.831-5.812c33.19-32.242,120.724-39.983,195.656-10.954C109.6-86.607,2.647-108.778-55.556-78.765z"
						/>
				</g>
			</g>
		</g>
	</g>
</g>
<g id="shape-3a955416-699d-4e06-b076-5e68b1f62436" transform="matrix(0.8438556752656609 0 0 0.8438556752656609 659.8502289450348 512.1918939684978)">
	<g>
		<g id="path-01" transform="matrix(1 0 0 1 -7.10543e-15 0)">
			
				<linearGradient id="SVGID_3_" gradientUnits="userSpaceOnUse" x1="-10136.748" y1="9869.9111" x2="-10136.748" y2="9619.9111" gradientTransform="matrix(0.8439 0 0 -0.8439 8549.2129 8203.7783)">
				<stop  offset="0" style="stop-color:#FAD961"/>
				<stop  offset="1" style="stop-color:#F76B1C"/>
			</linearGradient>
			<path fill="url(#SVGID_3_)" d="M23.459,25.081c0.179,0.88,0.19,2,0.119,2.87c-0.1,0.859-0.33,1.959-0.709,2.78
				c-0.34,0.83-0.66,1.419-0.66,1.419c-0.11,0.06-0.711-0.16-0.73-0.259c0,0,0.14-0.63,0.25-1.47c0.09-0.84,0.27-1.861,0.39-2.659
				c0.13-0.801,0.3-1.831,0.44-2.671c0.13-0.849,0.15-1.5,0.15-1.5c0.009-0.09,0.42-0.13,0.449-0.039
				C23.158,23.551,23.309,24.2,23.459,25.081z M18.928,18.78c-0.289-0.9-0.59-1.68-0.8-2.231c-0.23-0.549-0.36-0.869-0.36-0.869
				c-0.08-0.179-0.48-0.05-0.44,0.14c0,0,0.069,0.34,0.19,0.91c0.11,0.56,0.23,1.361,0.3,2.271c0.05,0.91,0.071,1.93,0.05,2.93
				c-0.009,1-0.119,1.989-0.19,2.849c-0.039,0.431-0.09,0.891-0.14,1.361c-0.05,0.47-0.13,0.959-0.17,1.449
				c-0.069,0.98-0.209,1.97-0.36,2.85c-0.17,0.89-0.31,1.67-0.42,2.221c-0.13,0.559-0.209,0.889-0.209,0.889
				c0.009,0.2,0.91,0.59,1.099,0.461c0,0,0.181-0.319,0.47-0.849c0.131-0.271,0.29-0.601,0.471-0.961
				c0.199-0.361,0.33-0.801,0.509-1.241c0.31-0.91,0.631-1.96,0.84-3.019c0.13-0.53,0.15-1.07,0.19-1.59
				c0.051-0.52,0.041-1.02,0.041-1.489c-0.03-0.941-0.12-2.011-0.321-3.071C19.519,20.729,19.219,19.69,18.928,18.78z M18.529,58.63
				c0,0,0.39-0.78,0.759-1.879c0.181-0.56,0.37-1.19,0.5-1.82c0.15-0.64,0.191-1.29,0.221-1.85c0.02-1.139-0.14-2.59-0.381-3.719
				c-0.24-1.129-0.51-1.95-0.51-1.95c-0.039-0.11-0.58,0-0.58,0.119c0,0,0.101,0.831,0.11,1.941c0.01,1.101-0.11,2.459-0.229,3.51
				c-0.12,1.039-0.2,2.379-0.361,3.469c-0.16,1.081-0.349,1.9-0.349,1.9C17.728,58.47,18.409,58.72,18.529,58.63z M45.168-11.591
				c-0.38-0.089-0.8-0.208-1.229-0.25c-0.431-0.029-0.861-0.029-1.23-0.009c-0.75,0.06-1.7,0.259-2.441,0.461
				c-0.729,0.19-1.28,0.38-1.28,0.38c-0.069,0.03,0.01,0.38,0.08,0.37c0,0,0.56-0.06,1.301-0.06c0.739,0,1.64,0.08,2.34,0.14
				c0.349,0.02,0.739,0.041,1.14,0.059c0.399,0.012,0.81-0.009,1.17-0.009c0.73,0,1.289,0.03,1.289,0.03
				c0.081-0.03,0.211-0.62,0.15-0.711C46.459-11.19,45.909-11.4,45.168-11.591z M52.269-0.07c-0.441,3.061-0.82,5.711-0.581,8.301
				c0.17,1.669,0.28,3.209,0.331,4.719c0.39,9.14-1.351,15.341-5.16,18.44c-1.81,1.47-4.07,2.22-6.72,2.22
				c-3.93,0-7.6-1.979-10.43-5.54c-0.369,3.74-1.519,6.979-3.42,9.711c-0.16,0.22-0.31,0.44-0.48,0.65
				c-0.13,0.179-0.28,0.339-0.42,0.509c-0.509,0.92-1.25,1.66-2.14,2.19c-0.5,0.431-0.989,0.79-1.45,1.081
				c2.92,1,6.71,2.97,7.041,6.54c0.279,3.14-0.01,7.35-0.2,9.58c-0.08,0.881-0.161,1.67-0.22,2.31c-0.03,0.3-0.071,0.571-0.14,0.84
				l-0.08,0.349c-0.06,0.251-0.131,0.49-0.221,0.73c-0.069,0.22-0.19,0.521-0.339,0.801c-0.071,0.139-0.14,0.289-0.241,0.429
				c-0.06,0.14-0.14,0.27-0.209,0.39l-0.101,0.14c-0.13,0.2-0.27,0.399-0.44,0.58c-0.09,0.14-0.28,0.349-0.49,0.56l-0.15,0.13
				c-0.14,0.15-0.33,0.321-0.539,0.47l-0.301,0.31h-0.13c-0.08,0.06-0.17,0.12-0.26,0.17c-0.089,0.06-0.179,0.11-0.27,0.161
				c0.69,0.709,1.09,1.679,1.15,2.849c0.27,5.291,0.34,11.12-2.39,13.27c-1.751,1.399-5.851,2.709-10.941,3.84l-1.87,33.13
				c-0.069,1.03-0.679,1.97-1.619,2.399c-8.401,3.831-16.75,3.66-25.17,0c-0.98-0.429-1.62-1.399-1.67-2.47l-1.271-29.339
				c-1.259,0-2.319-0.06-3.14-0.161c-6.35-0.53-11.58-2.59-15.469-5.97c-0.101-0.079-0.211-0.139-0.31-0.209
				c-3.9-2.86-7.13-7.86-6.92-12.879c-0.44-2.301-0.63-4.791-0.56-7.571c0.01-0.42,0-0.83-0.03-1.25
				c-0.24-3.23-1.66-6.201-3.98-8.369c-2.99-2.84-4.859-5.68-5.72-8.681c-0.709-2.45-0.729-5.079-0.05-7.81
				c0.741-3.03-0.009-6.27-2.01-8.66c-5.12-6.12-6.49-12.439-3.98-18.291c1.22-2.889,3.41-5.689,6.49-8.33
				c1.581-1.349,2.23-3.608,1.62-5.62c-1.81-5.9-1.01-11.54,2.28-16.309c4.74-6.85,14.04-11.111,26.24-12.06l-1.209-17.86
				c1.569,0.11,3.11,0.19,4.609,0.27l1.99,27.601c0.09,0.009,0.19,0.02,0.28,0.02c1.22,0.13,2.45,0.23,3.659,0.3l-2.019-27.75
				c2.06,0.09,4.06,0.161,6.04,0.209c0.66,0.021,1.31,0.03,1.96,0.041c0.63,0.01,1.28,0.03,1.92,0.041
				c0.54,0.009,1.08,0.009,1.629,0.009c0.551,0.01,1.101,0.01,1.65,0.01c0.82,0.01,1.65,0.01,2.48,0.01c0.5,0,1.01-0.01,1.51-0.021
				c0.56,0,1.11-0.009,1.67-0.009c0.319-0.01,0.63-0.01,0.94-0.01l-0.009,0.34v0.23l-0.7,27.219c1.289-0.039,2.56-0.1,3.84-0.169
				l1.04-27.7c0.949-0.021,1.899-0.06,2.879-0.081L8.629-21.51c1.93-0.12,3.859-0.28,5.77-0.459l1.03-27.372
				c1.61-0.079,3.26-0.169,4.98-0.25l-1.319,18.701c0.929,0.1,1.869,0.199,2.149,0.229c2.001,0.241,3.921,0.39,5.86,0.48
				c3.52,0.16,8.539,0.739,12.49,2.56c3.18,1.459,5.889,3.29,8.05,5.419c1.39,1.37,2.56,2.9,3.469,4.531
				c1.46,2.67,2.161,5.561,2.07,8.59C53.078-5.649,52.649-2.69,52.269-0.07z M9.409,87.44c-1.59,0.36-3.22,0.64-4.88,0.851
				l-0.78,31.579l4.05-1.11L9.409,87.44z M27.338,25.55l-0.059-0.72c-0.03-0.361-0.051-0.68-0.071-0.971l-0.11-1.3
				c-0.45-1.14-0.81-2.31-1.101-3.5c-0.169-0.581-0.319-1.161-0.459-1.741c-0.56-1.11-1.2-2.12-1.84-2.98
				c-2.159-2.92-5.63-4.15-9.2-4.7c-2.209-0.03-4.42-0.071-6.63-0.111c-8.679-0.19-26.11-0.768-34.77-1.16
				c-2.92-0.139-5.74-0.22-8.74-0.4c-3.079-0.24-5.82-1.84-8.13-3.89c2.909,0.14,5.41,1.381,8.32,1.42
				c5.46,0.111,20.36,0.5,26.02,0.66c0.72,0.021,1.46,0.051,2.221,0.081c8.839,0.1,18.399,0.53,27.169,0.58
				c0.041,0,0.08-0.01,0.12-0.01c2.43-0.22,4.37-1.97,5.12-4.249c0.351-2.26,0.86-4.49,1.48-6.67c-0.23-0.31-0.459-0.62-0.73-0.949
				c-1.099-1.351-2.36-2.611-3.739-3.74c-2.441-2-5.24-3.611-8.321-4.781c-0.64-0.24-1.37-0.49-2.29-0.76
				c-11.87-3.409-36.419-4.09-43.65-4.219c-0.88,0.06-1.75,0.12-2.53,0.19c-0.989,0.1-2.12,0.2-3.24,0.38
				c-1.129,0.171-2.28,0.34-3.28,0.571c-2.019,0.44-3.49,1.01-3.49,1.01c-0.209,0.06-0.289-0.14-0.1-0.23
				c0.01,0,0.01-0.01,0.02-0.01c0.01,0,0.01-0.009,0.02-0.009c0.211-0.1,1.101-0.53,2.35-1.051c-0.92,0.301-1.73,0.65-2.35,1.051
				c0.31-0.271,2.77-2.15,8.211-3.38c-4.171-2.48,6.68-7.16,7.899-7.669c-0.62,0.299-3.769,1.949-1.679,4.049
				c1.16,1.149,3.75,1.37,6.059,1.29l-0.48-6.92c-11.42,0.89-20.05,4.77-24.35,10.98c-2.47,3.581-3.299,7.74-2.45,12.14
				c0.22,0.44,0.461,0.861,0.67,1.23c0.31,0.59,0.64,1.28,1.07,1.92c0.41,0.65,0.899,1.25,1.349,1.78c0.48,0.5,0.9,0.97,1.23,1.28
				c0.351,0.29,0.55,0.47,0.55,0.47c0.06,0.181-0.41,1.081-0.599,1.07c0,0-0.28-0.119-0.75-0.321c-0.23-0.109-0.5-0.259-0.81-0.419
				c-0.321-0.15-0.61-0.41-0.95-0.641c-0.33-0.28-0.68-0.59-1.01-0.929c-0.28,1.86-1.19,3.6-2.64,4.84
				c-2.78,2.38-4.74,4.871-5.809,7.401c-2.15,4.999-0.941,10.279,3.599,15.699c0.15,0.181,0.28,0.38,0.42,0.569
				c0.441,0.351,0.81,0.631,1.081,0.82c0.509,0.36,1.069,0.77,1.649,1.161c0.551,0.419,1.11,0.859,1.631,1.22
				c1.039,0.709,1.89,1.22,1.89,1.22c0.08,0.17-0.26,1.12-0.431,1.15c0,0-0.25-0.06-0.679-0.16c-0.431-0.111-1.021-0.301-1.67-0.571
				c-0.33-0.14-0.67-0.3-1.01-0.48c-0.15-0.08-0.31-0.16-0.459-0.25c0.539,2,0.599,4.129,0.1,6.18c-0.58,2.34-0.571,4.469,0.02,6.53
				c0.73,2.56,2.38,5.031,5.04,7.55c0.961,0.89,1.78,1.909,2.471,3.01c0.459,0.55,0.899,1.099,1.239,1.66
				c0.23,0.431,0.47,0.79,0.631,1.16c0.169,0.361,0.33,0.671,0.44,0.951c0.209,0.549,0.33,0.88,0.33,0.88
				c0.06,0.181-0.14,0.25-0.24,0.1c0,0-0.17-0.3-0.45-0.789c-0.101-0.15-0.22-0.31-0.36-0.491c0.36,1.129,0.599,2.31,0.69,3.51
				c0.039,0.5,0.06,1.01,0.039,1.519c-0.08,3.261,0.22,6.201,0.9,8.741c2.4,9.009,9.54,14.46,20.12,15.33l-0.05,0.609h0.03
				l0.08-0.599c7.97,1,38.849-2.93,43.809-6.88c1.62-1.28,1.631-6.38,1.521-9.56c-0.751-0.81-1.631-1.519-2.59-2.009
				c-1.62-0.821-3.37-1.29-5.181-1.551c-8.529,0.319-17.059,0.41-25.6,0.361h-0.009c-5.08,0.059-10.161,0.049-15.231-0.021
				c-2.67-0.039-5.68,0.2-8.07-1.289c-2.38-1.421-4.3-3.311-5.86-5.441c0.01,0,0.021,0.01,0.03,0.021
				c-0.02-0.03-0.05-0.06-0.069-0.09c0.12,0.1,0.25,0.181,0.37,0.28c1,0.62,1.98,1.271,2.97,1.879c3.24,1.59,6.85,2.051,10.61,1.911
				l15.27,0.02c5.89,0.01,11.771,0.021,17.651,0.069c2.039-0.049,4.079-0.089,6.129-0.179c2.111-0.089,4.3-0.059,6.39-0.47
				c2.12-0.39,3.54-0.81,4.66-1.459l0.009-0.01c0.12-0.15,0.191-0.24,0.251-0.321l0.089-0.15c0.041-0.059,0.08-0.119,0.11-0.19
				l0.12-0.199c0.05-0.071,0.08-0.141,0.11-0.22c0.09-0.171,0.17-0.34,0.22-0.521c0.08-0.22,0.12-0.349,0.16-0.5l0.071-0.319
				c0.03-0.14,0.06-0.321,0.08-0.51c0.06-0.619,0.14-1.411,0.211-2.28c0.19-2.14,0.47-6.181,0.199-9.14
				c-0.17-1.881-2.45-3.251-4.67-4.12c-1.71-0.51-3.611-0.911-5.57-1.209c-1.04-0.161-2.09-0.292-3.14-0.4
				c-14.401-0.01-28.81-0.491-43.171-1.491h-0.149c-0.25-0.02-0.5-0.039-0.76-0.05c-1.37-0.08-2.81-0.11-4.2-0.31
				c-0.5-0.041-1.03-0.101-1.441-0.23c-0.49-0.12-0.929-0.319-1.36-0.55c-0.87-0.399-1.67-0.95-2.34-1.76
				c-0.56-0.58-1.15-1.19-1.739-1.81c-0.87-0.849-1.751-1.72-2.54-2.56c0.13,0.09,0.27,0.19,0.41,0.28
				c-0.14-0.15-0.29-0.31-0.42-0.461c1.631,1.15,3.4,2.49,4.99,3.721c0.02,0.02,0.05,0.041,0.069,0.06
				c0.42,0.321,0.87,0.64,1.34,0.91c0.87,0.429,1.82,0.65,2.831,0.739c1.55,0.051,3.98-0.039,5.04-0.009
				c4.24,0,8.47,0.11,12.7,0.241c5.98,0.13,11.95,0.319,17.91,0.609c6.22,0.141,17.261,0.021,23.57-3.5
				c0.041-0.06,0.09-0.11,0.14-0.17c0.15-0.19,0.27-0.36,0.38-0.54C26.269,33.42,27.319,29.791,27.338,25.55z M47.749,13.459
				c0.03-0.799-0.61-1.349-0.991-1.609c-1.37-0.641-3.12-1.261-4.799-1.261c-1.09,0-2.15,0.26-3.061,0.951
				c-2.429,1.83-1.709,6.68,0.2,10.309c1.29,2.441,3.84,3.831,6.36,3.471c1.69-0.24,1.8-1.05,1.85-1.351
				c0.27-1.879,0.419-5.499,0.429-10.459L47.749,13.459z M50.669-9.161c0.08-2.569-0.51-5.029-1.76-7.3
				c-0.78-1.419-1.8-2.75-3.03-3.949c-1.96-1.93-4.42-3.591-7.341-4.942c-3.579-1.649-8.259-2.179-11.56-2.328
				c-1.989-0.09-3.96-0.25-6.029-0.491c-0.271-0.03-1.15-0.13-2.04-0.22l-0.431,6.01h0.01l-0.19,3.48
				c2.35,0.26,3.88-0.271,3.88-3.12c0-0.33-0.021-0.69-0.06-1.09c3.999,4.171,7.58,8.511,6.83,14.401
				c0.069,1.22-0.051,2.47-0.42,3.759c-1.75,6.15-2.76,12.46-1.84,18.821c0.25,1.79,0.53,3.64,0.95,5.44l1.929,3.879
				c0.11,0.211,0.211,0.42,0.33,0.63c2.551,4.701,6.19,7.291,10.241,7.291c2.06,0,3.79-0.56,5.139-1.66
				c0.87-0.711,1.6-1.661,2.21-2.84c-0.459,0.259-1.03,0.459-1.76,0.569c-0.36,0.051-0.709,0.069-1.069,0.069
				c-2.93,0-5.74-1.72-7.22-4.519c-2.26-4.29-3.12-10.09,0.33-12.689c2.42-1.822,5.84-1.761,9.89,0.179l0.181,0.101
				c0.849,0.559,1.42,1.339,1.66,2.199c-0.06-1.289-0.15-2.62-0.3-4.05c-0.271-2.889,0.13-5.68,0.599-8.899
				C50.158-2.981,50.578-5.86,50.669-9.161z M43.869-14.711c-0.67-0.079-1.44-0.19-2.21-0.13c-0.78,0.041-1.55,0.15-2.22,0.25
				c-1.36,0.211-2.34,0.47-2.34,0.47c-0.14,0.041-0.09,0.381,0.05,0.391c0,0,1.01-0.081,2.31,0.069
				c0.65,0.069,1.381,0.19,2.081,0.349c0.709,0.16,1.399,0.271,2.01,0.4c1.209,0.241,2.759,0.59,3.98,0.98
				c1.259,0.3,2.19,0.67,2.19,0.67c0.15,0.009,0.5-0.62,0.42-0.771c0,0-0.83-0.62-2.04-1.31C46.859-13.96,45.209-14.5,43.869-14.711
				z M-16.801-54.34l0.16,1.4l0.06,0.551l0.08,0.759l0.06,0.55c0.49,0.01,0.97,0.02,1.45,0.02c0.349,0.01,0.72,0.021,1.069,0.021
				c0.12,0,0.241,0.009,0.351,0.009c0.77,0.01,1.53,0.021,2.29,0.021C-11.071-51-10.861-51-10.651-51
				c0.64,0.01,1.28,0.01,1.92,0.021h0.84c0.54,0.009,1.08,0.009,1.62,0.009c0.399,0.01,0.81,0.01,1.2,0.01h3.969
				c0.381-0.01,0.75-0.01,1.131-0.01c0.53,0,1.05,0,1.58-0.009h0.82c0.66-0.01,1.33-0.021,2-0.021
				c0.27-0.009,0.539-0.009,0.81-0.009c0.289-0.01,0.569-0.01,0.869-0.01h0.021l0.009-0.459l0.021-1.161v-0.08l0.039-2.021
				l0.01-0.329l0.01-0.611h-23.171l0.101,0.93L-16.801-54.34z M8.959-53.28l-0.03,1.5v0.051L8.919-51.19v0.13
				c0.47-0.009,0.949-0.009,1.429-0.02c0.28-0.01,0.56-0.01,0.851-0.02h0.009v-0.431l0.01-0.56l0.01-0.88l0.009-0.53l0.01-0.84
				l0.01-0.86v-0.48H9.008l-0.039,2.21L8.959-53.28z M15.819-51.19c1.54-0.03,3.1-0.069,4.71-0.12l0.319-4.37h-4.639l-0.08,0.9
				L15.819-51.19z M-31.341-63.61c-7.13-8.059-10.06-19.13-8.03-30.37c2.09-11.551,9.209-21.57,19.04-26.8
				c3.76-2,7.839-3.299,12.149-3.88c7.851-1.039,15.86,0.31,22.641,3.821l0.229-0.111l0.56,0.54c2.65,1.459,5.11,3.239,7.321,5.281
				l0.179,0.19c3.641,3.379,6.53,7.419,8.58,12.01c0.55,1.199,1.04,2.479,1.45,3.78c3.63,11.309,1.69,23.749-5.18,33.26
				c-0.26,0.37-0.87,1-1.84,1.979c-0.48,0.491-1.03,1.042-1.18,1.241l-0.27,0.319l-0.09,0.021c-0.839,1.95-1.909,3.689-3.26,5.189
				h-0.02l0.01-0.019h-47.491c-1.709-1.101-3.34-4.171-4.15-6.061c-0.03-0.01-0.059-0.02-0.089-0.03l-0.331-0.101L-31.341-63.61z
				 M-30.551-93.219c-1.349,0.38-2.56,0.789-3.65,1.229c0.23,0.391,0.461,0.792,0.7,1.18c0.92-0.1,1.84-0.209,2.77-0.3
				C-30.681-91.81-30.621-92.52-30.551-93.219z M-28.361-85.109c0.48,0.03,0.959,0.05,1.44,0.069l-0.01-0.03l-0.86-4.45l-0.009-0.03
				c-0.461,0.02-0.92,0.041-1.381,0.06c-0.13,0.01-0.25,0.01-0.38,0.02h-0.05c-0.15,0.01-0.31,0.021-0.471,0.03l0.021,0.14
				l0.47,2.37l0.31,1.62v0.02l0.03,0.14h0.1C-28.891-85.13-28.621-85.12-28.361-85.109z M-6.071-104.57
				c-0.11,2.22-0.2,4.6-0.26,7.14c1.04-0.021,2.08-0.021,3.13-0.021c1.05,0,2.099,0.021,3.14,0.051
				c-0.08-2.54-0.181-4.921-0.29-7.15c-0.95-0.051-1.909-0.071-2.879-0.071C-4.181-104.62-5.131-104.609-6.071-104.57z
				 M-3.642-105.869h0.42c0.941,0,1.87,0.02,2.801,0.071c-0.16-2.551-0.33-4.881-0.521-6.961c-0.699-0.02-1.399-0.05-2.11-0.05
				h-0.319c-0.711,0-1.43,0.021-2.15,0.05c-0.181,2.08-0.351,4.401-0.491,6.94C-5.231-105.859-4.441-105.869-3.642-105.869z
				 M0.879-104.48c0.12,2.47,0.211,4.909,0.27,7.13c1.98,0.06,3.94,0.17,5.86,0.321c-0.19-2.441-0.44-4.761-0.75-6.941
				C4.519-104.209,2.719-104.38,0.879-104.48z M6.069-105.25c-0.39-2.509-0.851-4.829-1.37-6.919c-1.42-0.23-2.87-0.399-4.359-0.51
				c0.19,2.25,0.349,4.6,0.47,6.93C2.598-105.65,4.349-105.47,6.069-105.25z M1.189-96.11c0.041,1.361,0.06,2.62,0.071,3.751
				c2.009,0.02,4.01,0.071,6.01,0.149c-0.03-1.229-0.09-2.419-0.181-3.579C5.209-95.939,3.238-96.05,1.189-96.11z M7.319-105.07
				c1.94,0.28,3.82,0.65,5.62,1.09c-0.55-2.42-1.23-4.7-2.019-6.79c-1.57-0.471-3.21-0.87-4.9-1.18
				C6.528-109.799,6.969-107.49,7.319-105.07z M7.509-103.799c0.31,2.229,0.56,4.53,0.741,6.879c2.06,0.181,4.09,0.421,6.029,0.711
				c-0.25-2.23-0.599-4.4-1.04-6.451C11.409-103.12,9.499-103.499,7.509-103.799z M8.329-95.689c0.09,1.179,0.149,2.34,0.19,3.53
				c2.04,0.069,4.079,0.169,6.13,0.3c-0.05-1.06-0.14-2.1-0.24-3.13C12.509-95.26,10.469-95.499,8.329-95.689z M21.329-101.239
				c-0.599-2.141-1.31-4.18-2.159-6.11c-2.1-1.16-4.38-2.15-6.81-2.97c0.741,2.08,1.381,4.31,1.9,6.669
				C16.799-102.98,19.178-102.17,21.329-101.239z M18.309-109.199c-0.98-1.99-2.09-3.841-3.32-5.52c-1.801-0.94-3.7-1.731-5.68-2.38
				c0.91,1.6,1.75,3.38,2.489,5.311C14.099-111.079,16.278-110.199,18.309-109.199z M7.629-117.61c-1.16-0.33-2.34-0.599-3.54-0.81
				c0.59,1.551,1.129,3.291,1.6,5.15c1.599,0.28,3.159,0.631,4.67,1.051c-0.27-0.67-0.56-1.32-0.86-1.96
				C8.909-115.409,8.299-116.559,7.629-117.61z M2.628-118.67c-0.989-0.149-2-0.27-3.019-0.33c0.24,1.54,0.44,3.251,0.619,5.07
				c1.4,0.09,2.77,0.241,4.121,0.44C3.829-115.449,3.238-117.179,2.628-118.67z M-0.041-96.15c-1.04-0.03-2.09-0.05-3.159-0.05h-0.7
				c-0.83,0-1.64,0.01-2.46,0.02c-0.03,1.241-0.05,2.51-0.06,3.81c2.15-0.039,4.31-0.039,6.47,0
				C0.029-93.659-0.011-94.93-0.041-96.15z M-6.092-119.04c-1,0.051-2,0.15-2.98,0.292c-0.64,1.53-1.209,3.289-1.73,5.229
				c1.351-0.199,2.73-0.349,4.121-0.419C-6.512-115.8-6.311-117.51-6.092-119.04z M-7.581-97.399c0.06-2.43,0.149-4.82,0.26-7.119
				c-1.811,0.089-3.591,0.24-5.33,0.449c-0.3,2.201-0.55,4.53-0.72,6.93C-11.501-97.27-9.561-97.35-7.581-97.399z M-13.461-95.879
				c-0.09,1.199-0.14,2.429-0.19,3.669c1.989-0.079,3.99-0.13,5.98-0.149c0.01-1.26,0.03-2.54,0.06-3.79
				C-9.611-96.1-11.561-96.01-13.461-95.879z M-7.262-105.769c0.131-2.441,0.29-4.761,0.48-6.911c-1.48,0.09-2.93,0.25-4.359,0.48
				c-0.51,2.1-0.95,4.4-1.31,6.841C-10.761-105.559-9.021-105.71-7.262-105.769z M-10.511-118.519c-1.15,0.181-2.29,0.43-3.4,0.73
				c-0.67,1.04-1.29,2.179-1.879,3.42c-0.31,0.66-0.631,1.349-0.911,2.051c1.47-0.4,3.001-0.741,4.55-1
				C-11.661-115.219-11.111-116.969-10.511-118.519z M-17.281-110.849c-0.79,2.069-1.46,4.3-2,6.64c1.78-0.4,3.62-0.741,5.52-0.991
				c0.349-2.409,0.789-4.68,1.27-6.78C-14.131-111.689-15.732-111.319-17.281-110.849z M-14.651-97.05
				c0.17-2.37,0.41-4.659,0.709-6.83c-1.95,0.271-3.84,0.631-5.65,1.06c-0.44,2.06-0.79,4.201-1.04,6.411
				C-18.731-96.659-16.731-96.88-14.651-97.05z M-20.771-95.14c-0.11,1.081-0.199,2.171-0.259,3.281
				c2.039-0.131,4.079-0.23,6.13-0.3c0.039-1.23,0.089-2.43,0.169-3.62C-16.831-95.61-18.841-95.4-20.771-95.14z M-18.781-110.39
				c-2.43,0.79-4.74,1.781-6.87,2.95c-0.801,1.85-1.491,3.82-2.04,5.851c2.17-0.911,4.53-1.68,7.05-2.291
				C-20.131-106.16-19.511-108.34-18.781-110.39z M-28.101-100.019c-0.429,1.68-0.75,3.409-0.989,5.171
				c2.159-0.542,4.58-1.001,7.18-1.381c0.23-2.15,0.551-4.24,0.97-6.25C-23.531-101.81-25.941-100.98-28.101-100.019z
				 M-29.241-93.569c-0.1,0.77-0.179,1.56-0.229,2.349c2.39-0.229,4.779-0.42,7.19-0.569c0.05-1.07,0.13-2.131,0.229-3.171
				C-24.671-94.58-27.091-94.109-29.241-93.569z M-22.051-79.66c-0.1-1.05-0.17-2.12-0.229-3.191c-1.65-0.109-3.29-0.259-4.93-0.399
				c0.169,0.16,0.319,0.33,0.5,0.49l0.009,0.01c1.21,1.07,2.5,2.05,3.85,2.95C-22.581-79.749-22.321-79.7-22.051-79.66z
				 M-20.771-79.47c1.9,0.27,3.93,0.51,6.07,0.7c-0.089-1.22-0.14-2.43-0.19-3.67c-2.04-0.09-4.09-0.2-6.13-0.321
				C-20.97-81.649-20.881-80.55-20.771-79.47z M-14.441-75.639c-0.06-0.631-0.12-1.26-0.17-1.911c-1.9-0.16-3.75-0.38-5.55-0.62
				c0.2,0.111,0.4,0.231,0.601,0.34c1.14,0.601,2.33,1.131,3.549,1.611C-15.501-76.01-14.971-75.819-14.441-75.639z M-13.461-78.66
				c1.89,0.15,3.859,0.26,5.919,0.33c-0.039-1.419-0.08-2.729-0.1-3.879c-2.01-0.041-4.01-0.09-6.01-0.19
				C-13.601-81.129-13.541-79.869-13.461-78.66z M-7.411-74.03c-0.05-1.051-0.08-2.081-0.11-3.07c-1.96-0.059-3.93-0.17-5.85-0.33
				c0.05,0.741,0.13,1.46,0.199,2.18c0.211,0.06,0.431,0.14,0.65,0.19c0.7,0.22,1.42,0.39,2.15,0.53l0.01,0.009
				c0.599,0.141,1.209,0.25,1.84,0.351C-8.151-74.11-7.781-74.069-7.411-74.03z M-0.022-77.02c-0.819,0.01-1.629,0.021-2.459,0.021
				h-0.69c-1.03,0-2.081-0.021-3.12-0.051c0.029,1.09,0.069,2.131,0.11,3.15c0.31,0.03,0.619,0.071,0.94,0.081
				c0.41,0.049,0.819,0.06,1.25,0.06c0.4,0.029,0.8,0.039,1.2,0.039c0.19,0,0.39,0,0.58-0.01c0.42,0,0.83-0.01,1.26-0.041
				c0.27-0.009,0.55-0.039,0.819-0.059C-0.091-74.87-0.061-75.919-0.022-77.02z M0.049-82.159c-2.14,0.01-4.29,0-6.46-0.03
				c0.03,1.34,0.05,2.64,0.09,3.89c1.039,0.03,2.09,0.051,3.17,0.051h0.55c0.87,0,1.741-0.01,2.6-0.021
				C0.038-79.541,0.049-80.82,0.049-82.159z M7.019-77.32c-1.881,0.14-3.82,0.22-5.79,0.27c-0.041,1.051-0.071,2.081-0.101,3.111
				c0.351-0.041,0.711-0.069,1.06-0.13c0.56-0.06,1.11-0.161,1.661-0.271c0.75-0.13,1.489-0.289,2.22-0.479
				c0.25-0.06,0.5-0.141,0.739-0.201C6.888-75.79,6.959-76.54,7.019-77.32z M7.289-82.299c-1.98,0.06-3.969,0.11-5.98,0.12
				c-0.01,1.289-0.021,2.59-0.06,3.87c2-0.041,3.969-0.141,5.86-0.28C7.189-79.8,7.239-81.04,7.289-82.299z M7.409-84.53
				c0.399-0.01,0.8-0.01,1.2-0.02h0.06c1.119-0.021,2.25-0.051,3.37-0.09c0.17,0,0.339-0.01,0.509-0.01l1.01-5.19
				c-0.181,0-0.36-0.009-0.54-0.009c-1.479-0.051-2.939-0.09-4.42-0.13h-0.14c-0.37-0.01-0.75-0.01-1.12-0.021
				c-0.039,0-0.08,0-0.119-0.009c-1.971-0.03-3.94-0.06-5.91-0.071h-0.12c-0.38-0.01-0.75-0.01-1.11-0.01
				c-0.041,0-0.071-0.009-0.11-0.009c-2.15-0.021-4.281-0.021-6.4,0h-0.081c-0.399,0-0.78,0-1.17,0.009h-0.089
				c-1.971,0.021-3.96,0.041-5.93,0.081h-0.071c-0.4,0.009-0.8,0.009-1.2,0.02h-0.05c-2.04,0.05-4.06,0.101-6.09,0.17
				c-0.021,0.009-0.03,0.009-0.051,0.009c-0.41,0.01-0.8,0.021-1.2,0.03h-0.19c-0.23,0.01-0.45,0.021-0.679,0.03l0.849,4.38
				l0.101,0.53c0.006,0.007,0.013,0.01,0.02,0.01c0.2,0.009,0.42,0.009,0.64,0.02c0.17,0,0.34,0.01,0.51,0.02
				c0.039,0,0.08,0,0.119,0.01c2,0.059,4.02,0.119,6.04,0.17h0.11c0.381,0,0.76,0.02,1.141,0.03h0.1c1.98,0.05,3.95,0.069,5.93,0.1
				h0.101c0.38,0,0.759,0.01,1.14,0.01h0.1c2.15,0.02,4.28,0.029,6.41,0.02h1.33c1.99-0.009,3.96-0.039,5.94-0.069
				C7.369-84.53,7.389-84.53,7.409-84.53z M14.259-78.05c-1.9,0.271-3.9,0.47-5.96,0.641c-0.05,0.679-0.12,1.339-0.181,2.009
				c0.45-0.14,0.9-0.28,1.34-0.449l0.01-0.012c1.2-0.419,2.379-0.919,3.519-1.47l0.01-0.02c0.431-0.2,0.84-0.45,1.26-0.679V-78.05z
				 M14.659-82.649c-2.031,0.139-4.07,0.22-6.11,0.299c-0.03,1.25-0.09,2.481-0.181,3.68c2.1-0.169,4.12-0.38,6.03-0.639
				C14.509-80.41,14.599-81.53,14.659-82.649z M15.539-96.04c2.57,0.411,4.98,0.89,7.17,1.45c-0.25-1.771-0.581-3.51-0.991-5.201
				c-2.159-0.979-4.57-1.828-7.17-2.53C14.979-100.309,15.299-98.2,15.539-96.04z M21.539-83.149
				c-1.87,0.16-3.751,0.309-5.621,0.419c-0.05,1.09-0.14,2.171-0.24,3.24c0.47-0.069,0.93-0.14,1.39-0.22
				c0.37-0.241,0.739-0.461,1.101-0.711l0.009-0.02C19.359-81.27,20.479-82.19,21.539-83.149z M19.629-84.9
				c0.26-0.01,0.51-0.02,0.771-0.029l0.86-4.401l0.039-0.22c-0.259-0.02-0.53-0.03-0.789-0.041c-0.801-0.039-1.581-0.069-2.37-0.1
				l-0.021,0.1l-0.92,4.791C18.008-84.829,18.819-84.859,19.629-84.9z M23.059-91.259c-0.041-0.691-0.11-1.381-0.19-2.051
				c-2.11-0.56-4.531-1.069-7.19-1.48c0.1,0.989,0.17,1.99,0.22,3.001C18.279-91.65,20.669-91.47,23.059-91.259z M24.009-94.249
				c1.84,0.509,3.48,1.069,4.91,1.69c0.13-0.25,0.27-0.491,0.399-0.729c-0.08-0.65-0.16-1.292-0.28-1.921
				c-1.59-1.43-3.579-2.74-5.889-3.89C23.509-97.529,23.798-95.9,24.009-94.249z M27.909-90.81c0.14-0.22,0.27-0.449,0.41-0.679
				c-1.19-0.51-2.57-1.01-4.15-1.46c0.071,0.601,0.12,1.191,0.15,1.8C25.519-91.05,26.709-90.93,27.909-90.81z M30.908-89.05
				c-0.23-0.02-0.459-0.041-0.7-0.05c-0.16-0.009-0.339-0.021-0.509-0.03c-0.021,0-0.041,0-0.06-0.009
				c-0.84-0.041-1.69-0.09-2.54-0.131l-0.12,0.62l-0.619,3.2l-0.041,0.211c1.129-0.06,2.271-0.111,3.39-0.191h0.06
				c0.39-0.029,0.78-0.05,1.19-0.08c0.03-0.009,0.06-0.009,0.09-0.009c0.08,0,0.17-0.01,0.241-0.01c0.22-0.01,0.44-0.03,0.66-0.05
				c0.22-0.01,0.45-0.03,0.66-0.04c0.06-0.34,0.09-0.739,0.11-1.14c0.01-0.2,0.021-0.4,0.021-0.61c0-0.429-0.021-0.86-0.06-1.251
				v-0.009c-0.021-0.1-0.021-0.22-0.041-0.319c-0.09,0-0.19-0.01-0.289-0.01c-0.12-0.01-0.23-0.02-0.351-0.02
				c-0.17-0.021-0.34-0.03-0.52-0.03c-0.17-0.01-0.34-0.03-0.51-0.03C30.949-89.05,30.928-89.05,30.908-89.05z M30.759-96.469
				c-0.34-0.611-0.711-1.21-1.12-1.801c0.23,0.84,0.41,1.69,0.56,2.56c0.06,0.051,0.119,0.11,0.17,0.17
				C30.509-95.85,30.639-96.159,30.759-96.469z M27.898-103.66c0.301,0.731,0.58,1.46,0.82,2.231c0.37,0.41,0.72,0.84,1.06,1.27
				c-0.211-0.55-0.44-1.09-0.68-1.631C28.719-102.42,28.329-103.049,27.898-103.66z M27.599-100.82c-1.82-2.05-4.09-3.9-6.67-5.49
				c0.741,1.831,1.351,3.74,1.881,5.731c2.23,1.051,4.2,2.25,5.86,3.55C28.379-98.319,28.029-99.58,27.599-100.82z M17.368-113.389
				c1.021,1.61,1.95,3.34,2.76,5.18c2.42,1.34,4.59,2.9,6.47,4.63c-0.56-1.381-1.2-2.71-1.93-3.999
				C22.548-109.789,20.089-111.749,17.368-113.389z M13.488-118.51c0.801,0.881,1.57,1.81,2.301,2.801
				c2.29,1.18,4.42,2.581,6.37,4.141c-0.42-0.601-0.88-1.191-1.349-1.771l-0.101-0.09c-2.019-1.86-4.31-3.5-6.77-4.849l-0.17-0.09
				C13.679-118.42,13.578-118.459,13.488-118.51z M6.449-121.249c0.65,0.78,1.28,1.62,1.881,2.549
				c1.69,0.491,3.329,1.081,4.909,1.771c-0.959-1.129-1.979-2.15-3.06-3.07C8.969-120.48,7.719-120.909,6.449-121.249z
				 M2.389-122.079c0.4,0.699,0.78,1.46,1.14,2.289c1.04,0.171,2.06,0.381,3.06,0.631c-0.69-0.959-1.41-1.81-2.15-2.56
				C3.759-121.859,3.079-121.98,2.389-122.079z M-1.011-122.419c0.15,0.66,0.29,1.379,0.42,2.159c0.88,0.051,1.75,0.12,2.6,0.25
				c-0.4-0.87-0.82-1.629-1.26-2.289C0.169-122.359-0.421-122.389-1.011-122.419z M-4.631-120.35
				c0.459-0.029,0.91-0.029,1.379-0.029c0.461,0,0.92,0.02,1.391,0.041c-0.14-0.81-0.271-1.521-0.411-2.15
				c-0.66-0.01-1.319,0.009-1.98,0.039C-4.381-121.84-4.501-121.149-4.631-120.35z M-5.401-114.01c0.67-0.03,1.349-0.05,2.03-0.05
				h0.319c0.67,0,1.34,0.03,2,0.05c-0.199-1.92-0.399-3.61-0.63-5.079c-0.52-0.021-1.05-0.03-1.57-0.03h-0.28
				c-0.419,0-0.86,0.009-1.289,0.03C-5.031-117.63-5.231-115.93-5.401-114.01z M-8.501-120.07c0.86-0.119,1.73-0.19,2.61-0.229
				c0.11-0.76,0.241-1.46,0.381-2.1c-0.601,0.05-1.2,0.101-1.801,0.17C-7.721-121.59-8.121-120.869-8.501-120.07z M-12.862-119.339
				c0.961-0.22,1.93-0.411,2.911-0.551c0.34-0.759,0.679-1.45,1.04-2.099c-0.68,0.109-1.37,0.22-2.04,0.38
				C-11.601-120.939-12.241-120.179-12.862-119.339z M-19.641-117.17c1.59-0.679,3.239-1.25,4.939-1.699
				c0.5-0.771,1.01-1.491,1.551-2.15c-1.51,0.459-2.971,1.02-4.4,1.68c-0.22,0.209-0.45,0.419-0.67,0.639
				C-18.701-118.209-19.181-117.7-19.641-117.17z M-21.381-115.009c-1.28,1.75-2.42,3.67-3.42,5.72c2.07-1.01,4.26-1.881,6.559-2.59
				c0.411-1.051,0.851-2.06,1.31-3.03c0.4-0.84,0.82-1.62,1.251-2.37C-17.651-116.679-19.561-115.92-21.381-115.009z
				 M-25.621-114.029c1.111-0.711,2.251-1.391,3.441-1.98c0.38-0.52,0.79-1.02,1.2-1.51
				C-22.621-116.499-24.171-115.33-25.621-114.029z M-32.741-104.01c1.8-1.61,3.859-3.051,6.1-4.3c0.84-1.919,1.8-3.719,2.88-5.409
				c-2.411,1.419-4.641,3.099-6.63,5.029C-31.271-107.199-32.06-105.639-32.741-104.01z M-34.871-97.6
				c1.641-1.239,3.55-2.37,5.71-3.36c0.48-1.87,1.06-3.701,1.73-5.451c-2.069,1.29-3.95,2.74-5.579,4.35
				c-0.271,0.27-0.53,0.54-0.78,0.821C-34.211-100.059-34.571-98.839-34.871-97.6z M-35.501-94.49c0.22,0.48,0.461,0.961,0.7,1.43
				c1.29-0.53,2.769-1.021,4.4-1.47c0.209-1.629,0.5-3.24,0.849-4.81c-2.239,1.09-4.179,2.34-5.749,3.71
				C-35.371-95.249-35.441-94.87-35.501-94.49z M-32.631-85.329l-0.08-0.391l-0.62-3.189l-0.069-0.36
				c-0.89,0.06-1.78,0.11-2.661,0.17c-0.03,0-0.06,0.009-0.09,0.009c-0.39,0.01-0.78,0.03-1.17,0.071h-0.11
				c-0.039,0-0.1,0-0.14,0.01c-0.16,0.02-0.349,0.02-0.53,0.039c-0.03,0.29-0.05,0.63-0.059,0.97c-0.01,0.41,0,0.84,0.02,1.25
				c0.02,0.391,0.05,0.771,0.09,1.101c0.19,0.02,0.39,0.03,0.589,0.041c0.041,0,0.081,0,0.12,0.009h0.19
				c0.36,0.03,0.72,0.06,1.08,0.071h0.021C-34.9-85.459-33.771-85.389-32.631-85.329z M-21.071-55.2l-0.06-0.48h-5.31l0.19,2.72
				l0.11,1.65c1.89,0.06,3.721,0.101,5.52,0.141l-0.27-2.37l-0.01-0.171L-21.071-55.2z M21.029,1.94c0,0,0.39-0.59,0.83-1.43
				c0.461-0.84,0.76-1.989,0.91-2.9c0.131-0.919,0.12-2.099,0.021-3.039c-0.09-0.93-0.25-1.62-0.25-1.62
				c-0.021-0.09-0.58-0.041-0.59,0.05c0,0,0,0.69-0.11,1.57c-0.101,0.889-0.321,1.96-0.5,2.789c-0.161,0.831-0.431,1.881-0.59,2.75
				c-0.181,0.87-0.39,1.521-0.39,1.521C20.369,1.729,20.919,2,21.029,1.94z M20.409,76.179c0.23-0.47,0.42-1.101,0.47-1.61
				s-0.009-1.17-0.11-1.68c-0.09-0.509-0.209-0.88-0.209-0.88c-0.02-0.051-0.47,0-0.48,0.05c0,0-0.02,0.37-0.1,0.851
				c-0.071,0.47-0.221,1.039-0.321,1.47c-0.09,0.44-0.181,1-0.26,1.46c-0.08,0.47-0.14,0.829-0.14,0.829
				c0.03,0.06,0.59,0.31,0.67,0.29C19.928,76.959,20.169,76.65,20.409,76.179z M15.769,79.93c0,0,0.56-0.601,1.2-1.5
				c0.58-0.921,1.149-2.18,1.42-3.21c0.13-0.53,0.259-1.12,0.28-1.741c0.03-0.61,0-1.229-0.041-1.771
				c-0.08-1.089-0.24-1.889-0.24-1.889c-0.03-0.101-0.581-0.071-0.601,0.039c0,0-0.03,0.789-0.22,1.79c-0.2,1.01-0.58,2.2-0.8,3.14
				c-0.241,0.93-0.58,2.129-0.94,3.081c-0.161,0.479-0.301,0.91-0.42,1.209c-0.131,0.3-0.2,0.48-0.2,0.48
				C15.188,79.68,15.638,79.98,15.769,79.93z M22.179,57.121c0,0,0.24-0.53,0.5-1.261c0.25-0.729,0.39-1.679,0.429-2.419
				c0.06-1.511-0.349-3.781-0.349-3.781c-0.021-0.071-0.381-0.05-0.39,0.03c0,0-0.01,0.56-0.101,1.29
				c-0.08,0.739-0.25,1.64-0.369,2.34c-0.11,0.699-0.25,1.58-0.31,2.31c-0.06,0.729-0.11,1.3-0.11,1.3
				C21.499,57.009,22.089,57.169,22.179,57.121z M17.109,1.991c0,0,0.559-0.851,1.08-2.12c0.24-0.631,0.52-1.351,0.62-2.111
				c0.14-0.75,0.179-1.509,0.179-2.17c-0.039-1.34-0.38-3.01-0.819-4.269c-0.42-1.271-0.89-2.15-0.89-2.15
				c-0.06-0.12-0.521,0.049-0.491,0.179c0,0,0.29,0.929,0.431,2.191c0.149,1.25,0.08,2.799-0.051,3.979
				c-0.069,0.59-0.13,1.26-0.24,1.93c-0.11,0.67-0.19,1.349-0.3,1.96c-0.23,1.21-0.53,2.11-0.53,2.11
				c0.009,0.149,0.849,0.56,1.01,0.47V1.991z"/>
		</g>
	</g>
</g>
<g id="tagline-3d7079d5-c06d-4345-83ce-84f2acd8ece1-logo-5" transform="matrix(0.7227275100817967 0.6911330886095427 -0.6911330886095427 0.7227275100817967 230.4984173142517 392.49938222416773)">
	<g>
		<g id="_x39_700364f-7fc3-4053-801f-b6dc044bc10d-path-0" transform="matrix(1 0 0 1 0 0)">
			<path fill="#9CB1C8" d="M0-0.002"/>
		</g>
	</g>
</g>
<g id="shape-8d43d9fc-2ec0-4a46-83b1-527b126bb5b4" transform="matrix(0.266732191726451 -0.0046558277250309974 0.004655827725030996 0.26673219172645096 376.13128689361093 512.0364625155121)">
	<g>
		<g id="decoration-5" transform="matrix(1 0 0 1 0 0)">
			<path fill="#1C72D4" d="M84.953,2.737c-46.123-24.61-97.28,3.841-97.28,3.841C-92.469,42.348-114.93-17.465-114.93-17.465
				c6.223,12,33.001,43.881,92.29,11.412C36.653-38.522,84.953,2.737,84.953,2.737z M-27.789-9.523c0,0-53.389,17.48-76.309-4.298
				c0,0,22.998,34.07,76.308,4.338 M3.513,9.476c0,0,47.819-15.509,76.428-2.327C79.941,7.149,48.322-16.08,3.513,9.476"/>
		</g>
	</g>
</g>
<g id="shape-191d0d62-4e3b-4909-92ed-13e2d91e3087" transform="matrix(0.266732191726451 -0.0046558277250309974 0.004655827725030996 0.26673219172645096 956.3383184527381 512.0364625155121)">
	<g>
		<g id="decoration-5_1_" transform="matrix(1 0 0 1 0 0)">
			<path fill="#1C72D4" d="M84.954,2.737c-46.123-24.61-97.28,3.841-97.28,3.841c-80.142,35.77-102.603-24.044-102.603-24.044
				c6.223,12,33.001,43.881,92.29,11.412C36.654-38.522,84.954,2.737,84.954,2.737z M-27.788-9.523c0,0-53.389,17.48-76.309-4.298
				c0,0,22.998,34.07,76.308,4.338 M3.513,9.476c0,0,47.819-15.509,76.428-2.327C79.941,7.149,48.322-16.08,3.513,9.476"/>
		</g>
	</g>
</g>
</svg>
