<?xml version="1.0" encoding="utf-8"?>
<!-- Generator: Adobe Illustrator 16.0.3, SVG Export Plug-In . SVG Version: 6.00 Build 0)  -->
<!DOCTYPE svg PUBLIC "-//W3C//DTD SVG 1.1//EN" "http://www.w3.org/Graphics/SVG/1.1/DTD/svg11.dtd">
<svg version="1.1" id="Capa_1" xmlns="http://www.w3.org/2000/svg" xmlns:xlink="http://www.w3.org/1999/xlink" x="0px" y="0px"
	 width="724px" height="704px" viewBox="286.5 194.5 724 704" enable-background="new 286.5 194.5 724 704" xml:space="preserve">
<text transform="matrix(1 0 0 1 8119.4902 8123.4902)" font-family="'TimesNewRomanPSMT'" font-size="12">import astro  from &apos;../assets/logoSVG.svg&apos;</text>
<desc>Created with Fabric.js 5.3.0</desc>
<g id="text-logo-0" transform="matrix(0.2685486563609463 -1.9022917020684411 1.9022917020684411 0.2685486563609463 369.75836715883054 470.0774887117242)">
	<g>
		<g id="a356c878-d244-42c0-bdf6-76c7493a3623-path-0" transform="matrix(1 0 0 1 0 0)">
			<path fill="#9CB1C8" d="M-16.875,1.97l-3.97,0l0-12.38l7.57,0c0.666,0,1.27,0.1,1.81,0.3c0.54,0.207,0.98,0.486,1.32,0.84
				c0.334,0.353,0.589,0.757,0.769,1.21c0.187,0.453,0.281,0.933,0.28,1.44l0,0c0,0.753-0.207,1.437-0.62,2.05
				c-0.406,0.614-0.996,1.064-1.768,1.35l0,0l2.75,5.19l-4.47,0l-2.19-4.52l-1.48,0L-16.875,1.97z M-16.874-7.58l0,2.28l2.61,0
				c0.307,0,0.57-0.11,0.79-0.33c0.219-0.22,0.33-0.493,0.33-0.82c0-0.327-0.11-0.596-0.33-0.81c-0.22-0.213-0.484-0.32-0.79-0.32
				l0,0L-16.874-7.58z"/>
		</g>
	</g>
</g>
<g id="text-logo-1" transform="matrix(0.5650963891721048 -1.836163982746738 1.8361639827467384 0.5650963891721049 379.7457452102621 425.5718210054251)">
	<g>
		<g id="_x33_9ed8078-630b-4e2a-af70-a2a6a2482bdd-path-0" transform="matrix(1 0 0 1 0 0)">
			<path fill="#9CB1C8" d="M-18.03,4.354l-4.07,0l4.52-12.38l4.63,0l4.51,12.38l-4.21,0l-0.52-1.75l-4.34,0L-18.03,4.354z
				 M-15.37-4.576l-1.31,4.41l2.68,0l-1.29-4.41L-15.37-4.576z"/>
		</g>
	</g>
</g>
<g id="text-logo-2" transform="matrix(0.8475101851652033 -1.724110955429771 1.7241109554297713 0.8475101851652032 397.05703167401305 382.05104349657245)">
	<g>
		<g id="f644f700-c250-46bc-b521-2806c693fd59-path-0" transform="matrix(1 0 0 1 0 0)">
			<path fill="#9CB1C8" d="M-15.934,6.784l-5.36,0l-0.001-12.38l5.36,0c4.327,0,6.49,2.06,6.49,6.18l0,0
				C-9.444,4.717-11.607,6.783-15.934,6.784L-15.934,6.784z M-17.323-2.627l0,6.44l1.32,0c1.66,0,2.49-0.893,2.49-2.68l0,0l0-1.08
				c0-1.787-0.83-2.68-2.49-2.68l0,0L-17.323-2.627z"/>
		</g>
	</g>
</g>
<g id="text-logo-3" transform="matrix(1.0695648915877825 -1.5958894207539978 1.595889420753998 1.0695648915877825 416.40814186334967 348.6143009619318)">
	<g>
		<g id="ef281128-1419-4ffb-a30c-67a14266b77b-path-0" transform="matrix(1 0 0 1 0 -8.8818e-16)">
			<path fill="#9CB1C8" d="M-13.163,8.825l-3.98,0l0-12.38l3.98,0L-13.163,8.825z"/>
		</g>
	</g>
</g>
<g id="text-logo-4" transform="matrix(1.2775812777677789 -1.4347885486332002 1.4347885486332004 1.2775812777677789 440.97130733929293 316.8992456276086)">
	<g>
		<g id="_x36_f95e062-0681-449a-af0e-50a013742033-path-0" transform="matrix(1 0 0 1 0 0)">
			<path fill="#9CB1C8" d="M-19.601,9.451c-1.16-1.093-1.74-2.687-1.74-4.78c0-2.086,0.577-3.676,1.73-4.77
				c1.16-1.087,2.81-1.63,4.95-1.63c2.14,0,3.79,0.543,4.95,1.629c1.167,1.094,1.75,2.684,1.75,4.77c0,2.093-0.583,3.686-1.75,4.78
				c-1.16,1.094-2.81,1.64-4.95,1.64l0,0C-16.795,11.091-18.441,10.545-19.601,9.451z M-17.271,4.101l0,1.15
				c0,0.88,0.223,1.58,0.67,2.1c0.44,0.513,1.087,0.77,1.94,0.77c0.847,0,1.497-0.26,1.95-0.78c0.454-0.52,0.68-1.216,0.68-2.09l0,0
				l0-1.15c0-0.873-0.227-1.567-0.68-2.08c-0.454-0.52-1.104-0.78-1.95-0.78c-0.853,0-1.5,0.257-1.94,0.77
				C-17.048,2.525-17.27,3.221-17.271,4.101L-17.271,4.101z"/>
		</g>
	</g>
</g>
<g id="text-logo-5" transform="matrix(0.7585418661642798 -0.6516243068486717 0.6516243068486717 0.7585418661642798 242.23227552823676 146.93006158624522)">
	<g>
		<g id="_x37_37844a9-07bc-449e-b94c-ef6b5396addf-path-0" transform="matrix(1 0 0 1 0 0)">
			<path fill="#9CB1C8" d="M-24.744,10.386"/>
		</g>
	</g>
</g>
<g id="text-logo-6" transform="matrix(1.607347297364237 -1.0522674404577947 1.0522674404577947 1.607347297364237 499.32152492130365 266.59838583013027)">
	<g>
		<g id="a6c3cc67-4078-4b98-ac05-2549c4fb0f33-path-0" transform="matrix(1 0 0 1 0 0)">
			<path fill="#9CB1C8" d="M-17.496,13.127c-1.08-1.08-1.62-2.68-1.62-4.8c0-2.112,0.54-3.71,1.62-4.79
				c1.087-1.074,2.687-1.61,4.8-1.61l0,0c1.834,0,3.287,0.46,4.36,1.38c1.067,0.927,1.6,2.237,1.6,3.93l0,0l-3.79,0
				c0-0.727-0.19-1.297-0.57-1.71c-0.38-0.42-0.917-0.63-1.61-0.63l0,0c-1.56,0-2.34,0.954-2.34,2.86l0,0l0,1.15
				c0,0.893,0.187,1.593,0.56,2.1c0.38,0.513,0.96,0.77,1.74,0.77l0,0c0.766,0,1.35-0.197,1.75-0.59c0.394-0.4,0.59-0.96,0.59-1.68
				l0,0l3.67,0c0,1.693-0.517,2.99-1.55,3.89c-1.04,0.9-2.51,1.35-4.41,1.35l0,0C-14.809,14.747-16.41,14.207-17.496,13.127z"/>
		</g>
	</g>
</g>
<g id="text-logo-7" transform="matrix(1.753141586812901 -0.7857013918651664 0.7857013918651664 1.7531415868129012 540.6733637577379 244.05135709577564)">
	<g>
		<g id="e2ffad8b-b460-44e2-9a4f-69a456f7cbed-path-0" transform="matrix(1 0 0 1 0 0)">
			<path fill="#9CB1C8" d="M-13.533,16.462l-3.97,0l0-12.38l7.57,0c0.667,0,1.27,0.1,1.81,0.3c0.54,0.206,0.98,0.487,1.32,0.84
				c0.334,0.353,0.59,0.757,0.77,1.21c0.187,0.453,0.28,0.933,0.28,1.44l0,0c0,0.754-0.207,1.437-0.62,2.05
				c-0.407,0.614-0.997,1.063-1.77,1.35l0,0l2.75,5.19l-4.47,0l-2.19-4.52l-1.48,0L-13.533,16.462z M-13.533,6.911l0,2.28l2.61,0
				c0.307,0,0.57-0.11,0.79-0.33c0.22-0.22,0.33-0.493,0.33-0.82c0-0.326-0.11-0.597-0.33-0.81c-0.22-0.213-0.483-0.32-0.79-0.319
				l0,0L-13.533,6.911z"/>
		</g>
	</g>
</g>
<g id="text-logo-8" transform="matrix(1.8421597545877662 -0.5452334721647739 0.5452334721647741 1.8421597545877666 576.6889749117071 230.77569809181648)">
	<g>
		<g id="_x33_7b46152-0791-4a3c-88a9-f2eaf5ac56ac-path-0" transform="matrix(1 0 0 1 0 7.10543e-15)">
			<path fill="#9CB1C8" d="M-7.989,17.895l-3.98,0.001l0-12.38l3.98,0L-7.989,17.895z"/>
		</g>
	</g>
</g>
<g id="text-logo-9" transform="matrix(1.8973201329992593 -0.30167600751035817 0.3016760075103582 1.8973201329992595 613.927046435845 222.35211566230277)">
	<g>
		<g id="ff565b39-11f5-431d-bb13-8ffa9e1d6b28-path-0" transform="matrix(1 0 0 1 0 0)">
			<path fill="#9CB1C8" d="M-14.167,14.901L-14.167,14.901l3.77,0c0,0.62,0.16,1.037,0.48,1.25c0.326,0.207,0.83,0.31,1.51,0.31l0,0
				c0.227,0,0.424-0.007,0.59-0.02c0.166-0.013,0.347-0.047,0.54-0.1c0.2-0.047,0.353-0.13,0.46-0.25
				c0.107-0.12,0.16-0.27,0.16-0.45l0,0c0-0.193-0.083-0.357-0.251-0.49c-0.167-0.14-0.39-0.253-0.67-0.34
				c-0.286-0.08-0.61-0.16-0.97-0.24c-0.367-0.073-0.753-0.156-1.16-0.25c-0.407-0.087-0.81-0.19-1.21-0.31
				c-0.4-0.12-0.783-0.276-1.15-0.47c-0.367-0.194-0.69-0.424-0.97-0.69c-0.28-0.267-0.503-0.603-0.67-1.01
				c-0.166-0.413-0.25-0.877-0.25-1.39l0,0c0-0.7,0.146-1.31,0.44-1.83c0.3-0.52,0.713-0.934,1.24-1.24
				c0.526-0.3,1.113-0.523,1.76-0.67c0.647-0.147,1.35-0.22,2.11-0.22c0.76,0,1.463,0.073,2.11,0.22
				c0.653,0.153,1.23,0.383,1.73,0.69c0.5,0.306,0.893,0.707,1.18,1.2c0.294,0.493,0.447,1.063,0.46,1.71l0,0l0,0.21l-3.73,0l0-0.07
				c0-0.36-0.133-0.66-0.4-0.9c-0.26-0.24-0.66-0.36-1.2-0.36l0,0c-0.52,0-0.923,0.08-1.21,0.24c-0.286,0.154-0.43,0.343-0.43,0.57
				l0,0c0,0.193,0.08,0.363,0.24,0.51c0.167,0.14,0.39,0.253,0.67,0.34c0.28,0.093,0.6,0.177,0.96,0.25
				c0.36,0.073,0.743,0.15,1.15,0.23c0.4,0.086,0.8,0.186,1.2,0.3c0.4,0.113,0.784,0.26,1.15,0.44
				c0.367,0.187,0.693,0.404,0.98,0.65c0.28,0.247,0.507,0.563,0.68,0.95c0.173,0.387,0.266,0.827,0.28,1.32l0,0
				c0,0.6-0.09,1.143-0.27,1.63c-0.187,0.48-0.44,0.887-0.76,1.22c-0.313,0.327-0.7,0.604-1.16,0.83
				c-0.46,0.22-0.964,0.384-1.51,0.49c-0.54,0.1-1.126,0.15-1.76,0.15l0,0c-0.733,0-1.39-0.04-1.97-0.12
				c-0.587-0.08-1.144-0.22-1.67-0.42c-0.533-0.2-0.976-0.467-1.33-0.8c-0.353-0.327-0.633-0.75-0.84-1.27
				C-14.064,16.187-14.168,15.587-14.167,14.901z"/>
		</g>
	</g>
</g>
<g id="text-logo-10" transform="matrix(1.9211151705159109 -0.012190250421515178 0.01219025042151518 1.921115170515911 657.8929703966252 218.73963896169602)">
	<g>
		<g id="c9b83bb6-f01e-42e6-a87b-5ca4a1d78793-path-0" transform="matrix(1 0 0 1 0 0)">
			<path fill="#9CB1C8" d="M-8.317,10.984l-4.07,0l0-3.16l12.1,0l0,3.16l-4.05,0l0,9.22l-3.98,0L-8.317,10.984z"/>
		</g>
	</g>
</g>
<g id="text-logo-11" transform="matrix(1.9064661389406663 0.23710538092667707 -0.23710538092667707 1.9064661389406663 696.0328935437151 220.9791162944279)">
	<g>
		<g id="adcbf1e0-d890-451f-b179-316792ac9531-path-0" transform="matrix(1 0 0 1 0 7.10543e-15)">
			<path fill="#9CB1C8" d="M-2.476,20.908l-3.98,0l0-12.38l3.98,0L-2.476,20.908z"/>
		</g>
	</g>
</g>
<g id="text-logo-12" transform="matrix(1.85790926647758 0.48888164020390124 -0.48888164020390135 1.8579092664775805 734.4318831544269 228.38670398766277)">
	<g>
		<g id="_x39_890231a-2b79-40bd-8115-11276a2ba82f-path-0" transform="matrix(1 0 0 1 0 7.10543e-15)">
			<path fill="#9CB1C8" d="M-5.225,21.373l-4.07,0l4.52-12.38l4.63,0l4.51,12.38l-4.21,0l-0.52-1.751l-4.34,0L-5.225,21.373z
				 M-2.565,12.441l-1.31,4.41l2.68,0l-1.29-4.41L-2.565,12.441z"/>
		</g>
	</g>
</g>
<g id="text-logo-13" transform="matrix(1.7548821957710203 0.7818059730889739 -0.781805973088974 1.7548821957710206 779.1044899178409 244.1017710179986)">
	<g>
		<g id="_x30_4550f8a-8284-4fe4-983e-7e023666fbfd-path-0" transform="matrix(1 0 0 1 0 0)">
			<path fill="#9CB1C8" d="M-2.507,21.57l-3.64,0l0-12.38l3.47,0l5.2,6.1l0-6.1l3.65,0l0,12.38l-3.47,0l-5.21-6.01L-2.507,21.57z"/>
		</g>
	</g>
</g>
<g id="text-logo-14" transform="matrix(1.6073472973642366 1.0522674404577954 -1.0522674404577954 1.6073472973642366 820.3727585912361 266.61393096654854)">
	<g>
		<g id="_x36_678f8cc-1ac1-4abc-a59b-3fe3f1ec1c27-path-0" transform="matrix(1 0 0 1 0 0)">
			<path fill="#9CB1C8" d="M-0.288,21.37l-4.07,0l4.52-12.38l4.63,0l4.51,12.38l-4.21,0l-0.52-1.749l-4.34,0L-0.288,21.37z
				 M2.373,12.441l-1.31,4.41l2.68,0l-1.29-4.41L2.373,12.441z"/>
		</g>
	</g>
</g>
<g id="text-logo-15" transform="matrix(0.7585418661642793 0.6516243068486719 -0.6516243068486719 0.7585418661642793 432.9602034311496 150.8327400237452)">
	<g>
		<g id="d278b0ad-aafd-4b5f-ba0e-e78ff725702b-path-0" transform="matrix(1 0 0 1 0 0)">
			<path fill="#9CB1C8" d="M7.189,26.785"/>
		</g>
	</g>
</g>
<g id="text-logo-16" transform="matrix(1.282580791753243 1.4303211573689807 -1.430321157368981 1.2825807917532432 878.5283431884338 316.7074947327577)">
	<g>
		<g id="f0a259dc-e5c4-4b84-8296-3419a155f94d-path-0" transform="matrix(1 0 0 1 0 0)">
			<path fill="#9CB1C8" d="M4.21,20.223l-3.97,0l0-12.38l7.57,0c0.667,0,1.27,0.1,1.81,0.3c0.54,0.206,0.98,0.486,1.32,0.84
				c0.333,0.353,0.591,0.757,0.77,1.21c0.187,0.453,0.28,0.934,0.28,1.44l0,0c0,0.753-0.206,1.437-0.62,2.05
				c-0.407,0.613-0.997,1.063-1.77,1.35l0,0l2.751,5.19l-4.47,0l-2.19-4.52l-1.48,0L4.21,20.223z M4.21,10.673l0,2.28l2.61,0
				c0.307,0,0.57-0.11,0.79-0.33c0.22-0.22,0.33-0.493,0.33-0.82c0-0.327-0.11-0.597-0.33-0.81c-0.22-0.214-0.483-0.32-0.79-0.32
				l0,0L4.21,10.673z"/>
		</g>
	</g>
</g>
<g id="text-logo-17" transform="matrix(1.0410435842445167 1.6146393889333452 -1.6146393889333455 1.0410435842445167 906.1501405392125 353.00927041297234)">
	<g>
		<g id="_x39_183309c-4306-48c5-99b7-ee9832b6e044-path-0" transform="matrix(1 0 0 1 0 -8.8818e-16)">
			<path fill="#9CB1C8" d="M5.669,19.054l-4.07,0l4.52-12.38l4.63,0l4.51,12.38l-4.21,0l-0.521-1.749l-4.34,0L5.669,19.054z
				 M8.328,10.124l-1.31,4.41l2.68,0l-1.29-4.41L8.328,10.124z"/>
		</g>
	</g>
</g>
<g id="text-logo-18" transform="matrix(0.773468262660922 1.7585729860452228 -1.758572986045223 0.7734682626609221 928.3005407830833 394.2733337250055)">
	<g>
		<g id="_x31_ca58d52-7c4c-4728-9c2a-ac142969bea9-path-0" transform="matrix(1 0 0 1 0 0)">
			<path fill="#9CB1C8" d="M9.785,17.565l-5.36,0l0-12.38l5.36,0c4.327,0,6.49,2.06,6.49,6.18l0,0
				C16.276,15.499,14.112,17.565,9.785,17.565L9.785,17.565z M8.395,8.156l0,6.44l1.32,0c1.66,0,2.49-0.893,2.49-2.68l0,0l0-1.08
				c0-1.786-0.83-2.68-2.49-2.679l0,0L8.395,8.156z"/>
		</g>
	</g>
</g>
<g id="text-logo-19" transform="matrix(0.5323859933314394 1.8459136639334497 -1.8459136639334497 0.5323859933314394 941.428065387976 430.6089134462384)">
	<g>
		<g id="_x31_8aa96b1-167e-4113-84fe-fec00eb9af54-path-0" transform="matrix(1 0 0 1 0 0)">
			<path fill="#9CB1C8" d="M13.763,16.087l-3.98,0l0.001-12.38l3.979,0L13.763,16.087z"/>
		</g>
	</g>
</g>
<g id="text-logo-20" transform="matrix(0.27518586273830564 1.9013429047756458 -1.9013429047756458 0.27518586273830564 949.8763328876879 469.8251439264267)">
	<g>
		<g id="b5ec1ccf-09e0-4b9e-bc13-02ef8de25637-path-0" transform="matrix(1 0 0 1 0 0)">
			<path fill="#9CB1C8" d="M8.066,12.965c-1.16-1.093-1.74-2.687-1.74-4.78c0-2.087,0.577-3.677,1.73-4.77
				c1.16-1.087,2.81-1.63,4.95-1.63c2.14-0.001,3.79,0.543,4.95,1.63c1.167,1.093,1.75,2.683,1.75,4.77
				c0,2.094-0.584,3.686-1.75,4.78c-1.16,1.093-2.81,1.64-4.95,1.64l0,0C10.872,14.605,9.225,14.059,8.066,12.965z M10.395,7.615
				l0,1.15c0,0.88,0.223,1.58,0.67,2.1c0.44,0.513,1.087,0.77,1.94,0.77c0.847,0,1.497-0.26,1.95-0.78
				c0.453-0.52,0.68-1.216,0.68-2.09l0,0l0-1.15c0-0.873-0.225-1.566-0.68-2.08c-0.452-0.52-1.102-0.779-1.95-0.78
				c-0.853,0-1.5,0.256-1.94,0.77C10.619,6.038,10.395,6.735,10.395,7.615L10.395,7.615z"/>
		</g>
	</g>
</g>
<g id="logo-logo" transform="matrix(1.9211538461538462 0 0 1.9211538461538462 656.7465410140965 519.4843970709142)">
	<g>
		<g transform="matrix(0.5443753903372861 0.4253126678945055 -0.42531266789450556 0.5443753903372862 0 -42.08043383112633)">
			<g>
				<g transform="matrix(1 0 0 1 -111.19843380320638 43.5103153739914)">
					<path fill="#FF914D" d="M2.999,32.438c-13.116,28.512-8.764,57.72-8.764,57.72c-4.481-25.734-4.574-66.898,10.364-91.47
						C4.599-1.312,16.116,3.926,2.999,32.438z M11.962-46.959C-5.406-22.812-3.668,17.003-3.668,17.003S-3.221-4.238,12.375-23.37
						C27.973-42.501,11.962-46.959,11.962-46.959z"/>
				</g>
				<g transform="matrix(1 0 0 1 0.8074318671097984 0)">
					
						<linearGradient id="SVGID_1_" gradientUnits="userSpaceOnUse" x1="-5947.2803" y1="4159.2993" x2="-5947.2803" y2="4383.437" gradientTransform="matrix(1.7614 -3.293138e-005 3.293138e-005 1.7614 10421.5352 -7370.3359)">
						<stop  offset="0" style="stop-color:#1C72D4"/>
						<stop  offset="0.75" style="stop-color:#FAFCFE"/>
					</linearGradient>
					<path fill="url(#SVGID_1_)" d="M-117.769,133.668c0,0-0.408-3.748-0.972-9.177c-0.227-8.792,0.205-20.535,3.052-31.19
						c-4.576-29.592,11.186-51.532,11.186-51.532s-0.747-0.339-2.024-0.664C-87.194,16.721-52.613-2.133-17.838-9.431
						C-17.837-9.43-124.326,42.679-117.769,133.668z M-43.452-79.192c-0.219,1.525-0.375,2.456-0.414,2.34
						c-0.194-0.582-16.224,10.645-27.03,24.433c-4.373,7.163-8.096,13.738-11.315,19.717c25.786-22.37,75.139-39.183,176.89-14.171
						l34.911-22.312C114.472-82.753,16.031-103.619-43.452-79.192L-43.452-79.192z M-96.933-6.817
						c0.547,1.99,0.876,3.368,0.876,3.368s-8.924,10.133-10.131,27.336c-8.685,19.458-9.485,36.626-9.485,36.626
						c3.254-52.089,92.647-98.47,167.731-77.755l25.149-18.535C-7.407-63.418-69.034-35.499-96.933-6.817z"/>
				</g>
				<g transform="matrix(1 0 0 1 1.993197837905626 -20.181149258609167)">
					<path fill="#FF914D" d="M-19.023,10.752c-42.807,8.972-86.572,45.504-95.379,72.816c-3.301,10.241-3.739,20.392-2.472,29.915
						l0,0c-2.504-17.854,1.692-35.662,8.281-51.104C-89.437,37.462-54.32,18.157-19.023,10.752z M-107.631,49.331l0.004,0.001
						c-0.001-0.016-0.001-0.033-0.001-0.049C-107.629,49.299-107.63,49.316-107.631,49.331z M76.02-15.597
						C-11.906-44.319-75-13.049-101.23,16.731c-2.769,7.03-5.327,16.24-6.144,27.337c1.575-13.624,10.673-28.772,36.926-45.289
						C-27.965-27.948,33.087-29.482,76.02-15.597z M-52.562-55.353c-7.284,6.155-14.265,13.771-19.518,23.114
						c1.42-2.083,3.009-4.041,4.831-5.812C-34.06-70.293,53.475-78.034,128.405-49.005C112.593-63.194,5.64-85.365-52.562-55.353z"
						/>
				</g>
			</g>
		</g>
		
			<g transform="matrix(-0.5517152088716167 -0.41574723014851567 0.4157472301485158 -0.551715208871617 5.684342e-14 42.453547389352025)">
			<g>
				<g transform="matrix(1 0 0 1 -111.19843380320638 43.5103153739914)">
					<path fill="#FF914D" d="M-7.423-10.852c-13.116,28.513-8.765,57.72-8.765,57.72c-4.481-25.734-4.574-66.898,10.364-91.47
						C-5.823-44.601,5.693-39.363-7.423-10.852z M1.538-90.248c-17.367,24.147-15.63,63.961-15.63,63.961s0.447-21.24,16.045-40.372
						C17.55-85.791,1.538-90.248,1.538-90.248z"/>
				</g>
				<g transform="matrix(1 0 0 1 0.8074318671097984 0)">
					
						<linearGradient id="SVGID_2_" gradientUnits="userSpaceOnUse" x1="-3072.8381" y1="-13278.0928" x2="-3072.8381" y2="-13053.9551" gradientTransform="matrix(1.7614 -8.544293e-006 8.544293e-006 1.7614 5348.9595 23298.0469)">
						<stop  offset="0" style="stop-color:#1C72D4"/>
						<stop  offset="0.75" style="stop-color:#FAFCFE"/>
					</linearGradient>
					<path fill="url(#SVGID_2_)" d="M-128.193,90.379c0,0-0.407-3.746-0.972-9.177c-0.226-8.79,0.206-20.535,3.053-31.188
						c-4.576-29.591,11.185-51.534,11.185-51.534s-0.746-0.339-2.024-0.664c19.334-24.383,53.914-43.238,88.689-50.535
						C-28.261-52.718-134.749-0.61-128.193,90.379z M-53.875-122.483c-0.22,1.526-0.375,2.457-0.414,2.341
						c-0.195-0.582-16.224,10.646-27.029,24.433c-4.374,7.163-8.098,13.739-11.315,19.716c25.786-22.37,75.138-39.183,176.891-14.17
						l34.912-22.312C104.05-126.041,5.609-146.908-53.875-122.483z M-107.356-50.106c0.547,1.991,0.875,3.369,0.875,3.369
						s-8.923,10.133-10.132,27.336c-8.683,19.458-9.485,36.626-9.485,36.626c3.253-52.089,92.648-98.469,167.732-77.755
						l25.148-18.534C-17.829-106.706-79.456-78.788-107.356-50.106z"/>
				</g>
				<g transform="matrix(1 0 0 1 1.993197837905626 -20.181149258609167)">
					<path fill="#FF914D" d="M-29.447-32.539c-42.807,8.971-86.573,45.504-95.379,72.817c-3.302,10.24-3.74,20.392-2.472,29.915l0,0
						c-2.504-17.855,1.693-35.663,8.282-51.104C-99.86-5.827-64.743-25.132-29.447-32.539z M-118.054,6.042l0.004,0.001
						c0-0.017-0.002-0.033-0.001-0.051C-118.052,6.009-118.054,6.025-118.054,6.042z M65.597-58.886
						c-87.926-28.723-151.021,2.548-177.251,32.328c-2.768,7.03-5.328,16.24-6.145,27.336c1.575-13.623,10.673-28.773,36.925-45.288
						C-38.389-71.236,22.663-72.771,65.597-58.886z M-62.985-98.642c-7.283,6.155-14.264,13.771-19.517,23.114
						c1.42-2.083,3.009-4.042,4.831-5.813c33.19-32.241,120.724-39.983,195.656-10.954C102.17-106.483-4.784-128.655-62.985-98.642z
						"/>
				</g>
			</g>
		</g>
	</g>
</g>
<g id="shape-3a955416-699d-4e06-b076-5e68b1f62436" transform="matrix(0.8438556752656609 0 0 0.8438556752656609 659.8502289450348 512.1918939684978)">
	<g>
		<g id="path-01" transform="matrix(1 0 0 1 -7.10543e-15 0)">
			
				<linearGradient id="SVGID_3_" gradientUnits="userSpaceOnUse" x1="-22311.627" y1="-2137.325" x2="-22311.627" y2="-1887.3253" gradientTransform="matrix(0.7121 0 0 0.7121 15874.5566 1428.6095)">
				<stop  offset="0" style="stop-color:#FAD961"/>
				<stop  offset="1" style="stop-color:#F76B1C"/>
			</linearGradient>
			<path fill="url(#SVGID_3_)" d="M13.98,57.078c0.179,0.88,0.19,2,0.119,2.87c-0.101,0.859-0.33,1.959-0.709,2.78
				c-0.34,0.831-0.66,1.419-0.66,1.419c-0.11,0.06-0.712-0.16-0.73-0.259c0,0,0.14-0.63,0.25-1.47c0.09-0.84,0.27-1.861,0.39-2.659
				c0.13-0.801,0.3-1.831,0.44-2.671c0.131-0.848,0.15-1.5,0.15-1.5c0.009-0.089,0.42-0.13,0.449-0.038
				C13.679,55.548,13.83,56.197,13.98,57.078z M9.451,50.777c-0.289-0.9-0.59-1.68-0.801-2.231c-0.229-0.55-0.36-0.87-0.36-0.87
				c-0.08-0.178-0.48-0.049-0.44,0.141c0,0,0.069,0.34,0.19,0.91c0.11,0.56,0.23,1.361,0.3,2.271c0.051,0.91,0.072,1.93,0.051,2.93
				c-0.009,1-0.119,1.989-0.191,2.849c-0.038,0.431-0.089,0.891-0.14,1.361c-0.05,0.47-0.13,0.958-0.169,1.449
				c-0.069,0.98-0.209,1.97-0.361,2.85c-0.169,0.89-0.309,1.67-0.419,2.221c-0.131,0.559-0.209,0.889-0.209,0.889
				c0.009,0.2,0.91,0.59,1.099,0.461c0,0,0.181-0.318,0.47-0.848c0.131-0.272,0.289-0.601,0.471-0.962
				c0.199-0.361,0.33-0.801,0.509-1.241c0.309-0.91,0.631-1.96,0.839-3.018c0.131-0.53,0.15-1.07,0.191-1.59
				c0.051-0.521,0.041-1.021,0.041-1.489c-0.03-0.941-0.12-2.011-0.321-3.071C10.04,52.726,9.74,51.687,9.451,50.777z M9.05,90.627
				c0,0,0.39-0.78,0.759-1.879c0.181-0.56,0.37-1.19,0.5-1.819c0.149-0.641,0.191-1.29,0.221-1.85c0.02-1.139-0.14-2.59-0.381-3.718
				c-0.241-1.129-0.51-1.951-0.51-1.951c-0.039-0.109-0.58,0-0.58,0.12c0,0,0.101,0.831,0.11,1.94
				c0.009,1.102-0.11,2.46-0.229,3.511c-0.12,1.039-0.2,2.379-0.361,3.468c-0.16,1.081-0.349,1.9-0.349,1.9
				C8.25,90.467,8.93,90.717,9.05,90.627z M35.689,20.406c-0.38-0.09-0.8-0.208-1.229-0.25c-0.432-0.03-0.861-0.03-1.23-0.009
				c-0.75,0.06-1.7,0.259-2.441,0.461c-0.729,0.19-1.28,0.38-1.28,0.38c-0.069,0.03,0.009,0.381,0.08,0.37c0,0,0.56-0.06,1.301-0.06
				c0.739,0,1.64,0.081,2.34,0.14c0.349,0.02,0.739,0.041,1.14,0.059c0.399,0.012,0.81-0.009,1.17-0.009
				c0.73,0,1.289,0.03,1.289,0.03c0.081-0.03,0.211-0.62,0.15-0.711C36.979,20.807,36.43,20.596,35.689,20.406z M42.79,31.927
				c-0.441,3.061-0.82,5.711-0.581,8.301c0.17,1.669,0.28,3.209,0.331,4.719c0.39,9.14-1.351,15.341-5.16,18.44
				c-1.81,1.47-4.07,2.22-6.72,2.22c-3.93,0-7.6-1.979-10.429-5.54c-0.369,3.739-1.519,6.979-3.421,9.711
				c-0.16,0.22-0.309,0.44-0.479,0.65c-0.131,0.178-0.28,0.339-0.42,0.509c-0.509,0.919-1.25,1.66-2.14,2.19
				c-0.501,0.43-0.989,0.79-1.45,1.081c2.92,1,6.71,2.97,7.041,6.541c0.279,3.14-0.01,7.349-0.2,9.58
				c-0.08,0.881-0.161,1.669-0.22,2.31c-0.03,0.3-0.072,0.571-0.14,0.84l-0.08,0.348c-0.06,0.251-0.131,0.49-0.221,0.73
				c-0.069,0.22-0.19,0.521-0.339,0.801c-0.072,0.139-0.14,0.289-0.241,0.429c-0.06,0.14-0.14,0.27-0.209,0.39l-0.101,0.14
				c-0.131,0.2-0.271,0.399-0.441,0.58c-0.089,0.14-0.279,0.349-0.49,0.56l-0.15,0.13c-0.14,0.15-0.33,0.322-0.538,0.47l-0.301,0.31
				H15.56c-0.08,0.06-0.17,0.12-0.259,0.17c-0.089,0.06-0.179,0.11-0.271,0.161c0.691,0.709,1.09,1.679,1.15,2.849
				c0.27,5.291,0.34,11.12-2.39,13.27c-1.751,1.399-5.851,2.709-10.941,3.84l-1.87,33.13c-0.069,1.03-0.679,1.97-1.619,2.399
				c-8.402,3.831-16.75,3.659-25.17,0c-0.98-0.429-1.62-1.399-1.67-2.47l-1.271-29.339c-1.259,0-2.319-0.06-3.141-0.162
				c-6.35-0.53-11.58-2.59-15.468-5.969c-0.102-0.079-0.212-0.139-0.31-0.209c-3.9-2.86-7.13-7.86-6.92-12.879
				c-0.44-2.301-0.63-4.791-0.56-7.571c0.01-0.42,0-0.83-0.03-1.25c-0.24-3.23-1.66-6.201-3.98-8.369
				c-2.99-2.84-4.859-5.68-5.72-8.681c-0.708-2.45-0.729-5.079-0.05-7.81c0.742-3.03-0.009-6.27-2.01-8.66
				c-5.12-6.121-6.49-12.439-3.98-18.291c1.22-2.89,3.41-5.689,6.49-8.33c1.581-1.349,2.23-3.608,1.62-5.621
				c-1.81-5.9-1.01-11.539,2.28-16.309c4.74-6.849,14.04-11.11,26.24-12.059l-1.208-17.861c1.569,0.111,3.11,0.19,4.608,0.271
				l1.99,27.601c0.09,0.009,0.19,0.02,0.28,0.02c1.22,0.131,2.45,0.23,3.659,0.3l-2.019-27.749c2.06,0.089,4.06,0.16,6.04,0.208
				c0.661,0.021,1.31,0.03,1.96,0.042c0.63,0.009,1.28,0.03,1.92,0.041c0.54,0.008,1.08,0.008,1.629,0.008
				c0.551,0.012,1.101,0.012,1.649,0.012c0.82,0.009,1.65,0.009,2.48,0.009c0.501,0,1.01-0.009,1.51-0.021
				c0.56,0,1.11-0.009,1.67-0.009c0.319-0.009,0.631-0.009,0.941-0.009l-0.009,0.339v0.23l-0.7,27.219
				c1.289-0.039,2.56-0.1,3.84-0.169l1.04-27.7c0.949-0.021,1.899-0.06,2.879-0.081l-0.721,27.581
				c1.93-0.119,3.859-0.279,5.77-0.459l1.03-27.372c1.611-0.079,3.26-0.169,4.981-0.25L9.61,1.108
				c0.929,0.1,1.869,0.199,2.149,0.229c2.001,0.241,3.921,0.39,5.859,0.479c3.52,0.161,8.539,0.739,12.49,2.56
				c3.18,1.46,5.889,3.291,8.05,5.421c1.39,1.369,2.56,2.899,3.469,4.53c1.459,2.671,2.161,5.562,2.07,8.592
				C43.599,26.348,43.17,29.307,42.79,31.927z M-0.07,119.437c-1.59,0.36-3.22,0.64-4.88,0.851l-0.78,31.579l4.05-1.11
				L-0.07,119.437z M17.859,57.547L17.8,56.826c-0.03-0.361-0.051-0.679-0.071-0.971l-0.111-1.3
				c-0.449-1.14-0.809-2.311-1.101-3.501c-0.169-0.581-0.319-1.161-0.459-1.741c-0.559-1.11-1.199-2.12-1.839-2.98
				c-2.159-2.92-5.63-4.15-9.2-4.7c-2.209-0.03-4.421-0.072-6.63-0.111c-8.679-0.19-26.11-0.768-34.77-1.16
				c-2.921-0.14-5.74-0.22-8.741-0.4c-3.078-0.241-5.82-1.84-8.13-3.891c2.909,0.141,5.41,1.382,8.321,1.421
				c5.46,0.111,20.36,0.5,26.02,0.66c0.72,0.021,1.459,0.051,2.221,0.081c8.839,0.1,18.399,0.53,27.169,0.58
				c0.041,0,0.08-0.01,0.119-0.01c2.43-0.22,4.371-1.97,5.121-4.249c0.351-2.259,0.86-4.489,1.48-6.669
				c-0.23-0.31-0.459-0.619-0.73-0.949c-1.099-1.351-2.361-2.611-3.739-3.74c-2.441-2-5.24-3.611-8.321-4.781
				c-0.64-0.241-1.37-0.491-2.29-0.76c-11.87-3.408-36.419-4.09-43.651-4.218c-0.88,0.06-1.75,0.119-2.53,0.19
				c-0.988,0.1-2.12,0.199-3.239,0.38c-1.129,0.171-2.281,0.34-3.281,0.572c-2.018,0.44-3.489,1.009-3.489,1.009
				c-0.209,0.06-0.289-0.14-0.101-0.229c0.01,0,0.01-0.01,0.02-0.01c0.01,0,0.01-0.009,0.021-0.009
				c0.211-0.101,1.101-0.53,2.349-1.051c-0.92,0.301-1.73,0.649-2.349,1.051c0.31-0.271,2.769-2.15,8.211-3.38
				c-4.171-2.479,6.68-7.159,7.898-7.668c-0.619,0.299-3.768,1.949-1.678,4.048c1.16,1.149,3.75,1.37,6.058,1.29l-0.479-6.919
				c-11.421,0.889-20.051,4.769-24.351,10.98c-2.47,3.581-3.298,7.74-2.45,12.14c0.221,0.44,0.462,0.861,0.67,1.229
				c0.31,0.59,0.64,1.28,1.07,1.921c0.41,0.649,0.899,1.25,1.349,1.78c0.479,0.5,0.899,0.97,1.229,1.28
				c0.352,0.289,0.551,0.47,0.551,0.47c0.06,0.181-0.411,1.081-0.599,1.069c0,0-0.28-0.118-0.75-0.321
				c-0.23-0.109-0.5-0.259-0.81-0.419c-0.321-0.149-0.61-0.411-0.95-0.641c-0.33-0.28-0.679-0.59-1.01-0.929
				c-0.279,1.861-1.19,3.6-2.64,4.84c-2.78,2.38-4.74,4.872-5.808,7.402c-2.15,4.999-0.941,10.279,3.599,15.699
				c0.149,0.181,0.28,0.38,0.419,0.568c0.442,0.351,0.81,0.631,1.082,0.82c0.508,0.36,1.068,0.77,1.649,1.161
				c0.551,0.419,1.11,0.859,1.631,1.22c1.039,0.709,1.89,1.221,1.89,1.221c0.08,0.169-0.26,1.119-0.431,1.149
				c0,0-0.25-0.059-0.679-0.16c-0.432-0.111-1.021-0.302-1.67-0.571c-0.33-0.141-0.67-0.301-1.01-0.481
				c-0.15-0.079-0.31-0.16-0.459-0.25c0.539,2.001,0.599,4.129,0.101,6.181c-0.58,2.34-0.572,4.468,0.02,6.53
				c0.73,2.56,2.38,5.031,5.04,7.55c0.962,0.889,1.78,1.908,2.471,3.009c0.459,0.551,0.899,1.099,1.239,1.661
				c0.23,0.432,0.47,0.79,0.631,1.16c0.169,0.361,0.33,0.671,0.441,0.951c0.208,0.55,0.33,0.881,0.33,0.881
				c0.06,0.181-0.14,0.25-0.241,0.1c0,0-0.17-0.301-0.45-0.789c-0.101-0.15-0.22-0.31-0.36-0.491c0.36,1.129,0.599,2.31,0.691,3.51
				c0.038,0.5,0.059,1.01,0.038,1.519c-0.08,3.26,0.22,6.201,0.9,8.74c2.4,9.01,9.54,14.461,20.12,15.331l-0.05,0.609h0.03
				l0.08-0.599c7.97,1,38.848-2.93,43.808-6.88c1.62-1.28,1.632-6.38,1.522-9.56c-0.751-0.81-1.632-1.518-2.59-2.009
				c-1.62-0.822-3.37-1.289-5.181-1.551c-8.529,0.319-17.059,0.41-25.6,0.361h-0.009c-5.08,0.058-10.161,0.049-15.231-0.021
				c-2.671-0.039-5.681,0.199-8.071-1.289c-2.379-1.421-4.299-3.312-5.859-5.441c0.009,0,0.021,0.01,0.029,0.021
				c-0.02-0.03-0.05-0.06-0.068-0.09c0.12,0.101,0.25,0.182,0.37,0.28c1,0.62,1.98,1.271,2.97,1.879
				c3.24,1.59,6.85,2.051,10.61,1.912l15.27,0.019c5.89,0.012,11.772,0.022,17.651,0.069c2.039-0.049,4.079-0.088,6.13-0.178
				c2.111-0.09,4.299-0.06,6.389-0.47c2.12-0.391,3.54-0.81,4.66-1.459l0.009-0.01c0.119-0.15,0.191-0.24,0.251-0.321l0.089-0.15
				c0.041-0.059,0.08-0.119,0.11-0.19l0.119-0.199c0.051-0.071,0.08-0.141,0.11-0.22c0.09-0.171,0.17-0.34,0.22-0.522
				c0.081-0.22,0.12-0.348,0.161-0.5l0.071-0.318c0.03-0.14,0.06-0.321,0.08-0.51c0.06-0.618,0.14-1.411,0.212-2.28
				c0.19-2.14,0.47-6.181,0.198-9.14c-0.169-1.881-2.45-3.251-4.67-4.12c-1.71-0.509-3.611-0.911-5.57-1.208
				c-1.04-0.162-2.09-0.293-3.14-0.4c-14.401-0.01-28.81-0.491-43.172-1.491h-0.148c-0.25-0.021-0.501-0.039-0.76-0.051
				c-1.37-0.08-2.81-0.11-4.2-0.31c-0.5-0.041-1.03-0.101-1.442-0.229c-0.49-0.12-0.928-0.319-1.36-0.551
				c-0.87-0.398-1.67-0.949-2.34-1.759c-0.56-0.581-1.15-1.191-1.738-1.81c-0.87-0.849-1.752-1.721-2.54-2.56
				c0.13,0.089,0.27,0.19,0.41,0.279c-0.14-0.149-0.29-0.309-0.42-0.461c1.631,1.149,3.4,2.489,4.99,3.721
				c0.02,0.021,0.05,0.042,0.069,0.06c0.419,0.322,0.869,0.64,1.339,0.91c0.87,0.429,1.82,0.65,2.832,0.739
				c1.55,0.051,3.98-0.038,5.04-0.009c4.24,0,8.47,0.11,12.7,0.242c5.98,0.13,11.95,0.318,17.91,0.609
				c6.22,0.141,17.262,0.021,23.57-3.5c0.042-0.06,0.09-0.111,0.14-0.171c0.15-0.19,0.271-0.359,0.381-0.539
				C16.79,65.417,17.839,61.788,17.859,57.547z M38.27,45.456c0.03-0.8-0.61-1.349-0.991-1.61c-1.37-0.641-3.12-1.26-4.799-1.26
				c-1.09,0-2.15,0.259-3.061,0.95c-2.429,1.83-1.709,6.681,0.2,10.31c1.289,2.44,3.84,3.831,6.36,3.469
				c1.69-0.24,1.8-1.048,1.849-1.351c0.27-1.878,0.419-5.498,0.429-10.458L38.27,45.456z M41.19,22.836
				c0.081-2.569-0.509-5.029-1.759-7.3c-0.78-1.42-1.801-2.751-3.031-3.95c-1.959-1.93-4.42-3.591-7.341-4.943
				C25.48,4.996,20.8,4.466,17.499,4.317c-1.989-0.09-3.96-0.25-6.029-0.492c-0.271-0.03-1.15-0.13-2.04-0.22L8.999,9.616h0.01
				l-0.191,3.48c2.35,0.26,3.88-0.272,3.88-3.12c0-0.33-0.021-0.691-0.06-1.09c3.999,4.171,7.58,8.512,6.83,14.401
				c0.069,1.22-0.051,2.471-0.42,3.759c-1.75,6.151-2.76,12.46-1.84,18.821c0.25,1.791,0.53,3.641,0.95,5.441l1.929,3.878
				c0.11,0.212,0.211,0.42,0.33,0.631c2.551,4.701,6.19,7.291,10.241,7.291c2.061,0,3.79-0.56,5.139-1.66
				c0.87-0.712,1.6-1.662,2.21-2.84c-0.459,0.258-1.03,0.458-1.76,0.568c-0.36,0.051-0.709,0.068-1.069,0.068
				c-2.93,0-5.74-1.72-7.22-4.518c-2.26-4.291-3.12-10.09,0.331-12.689c2.42-1.823,5.84-1.76,9.89,0.179l0.181,0.101
				c0.849,0.559,1.42,1.339,1.66,2.199c-0.059-1.288-0.149-2.62-0.3-4.049c-0.271-2.89,0.13-5.68,0.599-8.899
				C40.679,29.016,41.1,26.137,41.19,22.836z M34.389,17.286c-0.67-0.08-1.44-0.19-2.209-0.131c-0.78,0.041-1.551,0.149-2.221,0.25
				c-1.36,0.212-2.34,0.471-2.34,0.471c-0.14,0.039-0.089,0.38,0.051,0.39c0,0,1.009-0.081,2.31,0.069
				c0.649,0.068,1.381,0.19,2.081,0.348c0.709,0.16,1.399,0.271,2.01,0.4c1.208,0.241,2.759,0.59,3.98,0.98
				c1.259,0.3,2.19,0.67,2.19,0.67c0.15,0.009,0.5-0.62,0.42-0.771c0,0-0.83-0.62-2.04-1.31
				C37.38,18.036,35.73,17.497,34.389,17.286z M-26.28-22.343l0.16,1.4l0.06,0.551l0.08,0.759l0.06,0.549
				c0.49,0.012,0.97,0.021,1.45,0.021c0.349,0.009,0.72,0.021,1.069,0.021c0.119,0,0.241,0.009,0.351,0.009
				c0.77,0.009,1.53,0.021,2.29,0.021c0.208,0.009,0.42,0.009,0.63,0.009c0.64,0.009,1.28,0.009,1.92,0.021h0.84
				c0.54,0.009,1.08,0.009,1.62,0.009c0.399,0.009,0.81,0.009,1.2,0.009h3.969c0.381-0.009,0.75-0.009,1.131-0.009
				c0.53,0,1.05,0,1.58-0.009h0.82c0.66-0.009,1.33-0.021,2-0.021c0.27-0.009,0.539-0.009,0.81-0.009
				c0.289-0.009,0.569-0.009,0.869-0.009h0.021l0.009-0.459l0.021-1.161v-0.081l0.039-2.021l0.009-0.329l0.01-0.611h-23.171
				l0.101,0.93L-26.28-22.343z M-0.52-21.283l-0.03,1.5v0.051l-0.008,0.539v0.13c0.47-0.009,0.949-0.009,1.429-0.021
				c0.279-0.009,0.559-0.009,0.851-0.019H1.73v-0.432l0.009-0.56l0.01-0.881l0.009-0.53l0.009-0.839l0.01-0.86v-0.48h-2.251
				l-0.039,2.209L-0.52-21.283z M6.34-19.193c1.54-0.03,3.1-0.069,4.71-0.12l0.319-4.37H6.73l-0.08,0.9L6.34-19.193z M-40.82-31.613
				c-7.13-8.059-10.06-19.131-8.03-30.371c2.09-11.551,9.209-21.569,19.04-26.8c3.76-2,7.838-3.298,12.149-3.879
				c7.851-1.039,15.859,0.31,22.641,3.821l0.229-0.111l0.56,0.539c2.65,1.459,5.109,3.239,7.321,5.282l0.179,0.19
				c3.641,3.379,6.529,7.418,8.58,12.01c0.55,1.199,1.039,2.479,1.45,3.78c3.629,11.309,1.69,23.749-5.18,33.26
				c-0.26,0.37-0.87,1-1.84,1.979c-0.48,0.491-1.03,1.042-1.18,1.241l-0.27,0.319l-0.09,0.021c-0.839,1.951-1.909,3.689-3.26,5.189
				h-0.02l0.009-0.019h-47.491c-1.709-1.102-3.34-4.171-4.15-6.062c-0.03-0.009-0.059-0.02-0.089-0.03l-0.331-0.101L-40.82-31.613z
				 M-40.029-61.222c-1.349,0.38-2.561,0.789-3.65,1.229c0.229,0.391,0.461,0.792,0.699,1.18c0.92-0.1,1.84-0.209,2.77-0.301
				C-40.16-59.813-40.1-60.523-40.029-61.222z M-37.84-53.112c0.48,0.03,0.959,0.05,1.44,0.069l-0.009-0.03l-0.861-4.451
				l-0.008-0.03c-0.462,0.021-0.92,0.042-1.382,0.06c-0.13,0.01-0.25,0.01-0.38,0.021h-0.05c-0.15,0.009-0.31,0.021-0.471,0.03
				l0.021,0.139l0.47,2.37l0.31,1.62v0.021l0.03,0.139h0.1C-38.37-53.133-38.1-53.124-37.84-53.112z M-15.55-72.573
				c-0.11,2.22-0.2,4.599-0.26,7.14c1.04-0.022,2.081-0.022,3.13-0.022s2.099,0.022,3.14,0.051c-0.08-2.54-0.181-4.921-0.289-7.15
				c-0.95-0.051-1.909-0.071-2.879-0.071C-13.66-72.624-14.61-72.612-15.55-72.573z M-13.12-73.872h0.42
				c0.941,0,1.869,0.02,2.801,0.071c-0.16-2.551-0.33-4.881-0.521-6.96c-0.699-0.021-1.399-0.051-2.111-0.051h-0.319
				c-0.711,0-1.43,0.021-2.15,0.051c-0.181,2.078-0.351,4.4-0.491,6.939C-14.708-73.862-13.92-73.872-13.12-73.872z M-8.6-72.483
				c0.12,2.47,0.212,4.908,0.271,7.129c1.98,0.06,3.939,0.171,5.859,0.322c-0.19-2.442-0.44-4.761-0.75-6.941
				C-4.959-72.212-6.76-72.383-8.6-72.483z M-3.41-73.253c-0.39-2.509-0.851-4.829-1.37-6.919c-1.42-0.23-2.87-0.399-4.358-0.51
				c0.19,2.251,0.348,4.601,0.47,6.931C-6.88-73.654-5.13-73.473-3.41-73.253z M-8.29-64.113c0.042,1.361,0.06,2.62,0.072,3.751
				c2.009,0.02,4.01,0.071,6.01,0.149c-0.03-1.229-0.09-2.419-0.181-3.578C-4.27-63.942-6.241-64.053-8.29-64.113z M-2.16-73.073
				c1.941,0.28,3.82,0.649,5.621,1.09c-0.551-2.421-1.23-4.701-2.019-6.791c-1.57-0.471-3.21-0.87-4.9-1.18
				C-2.95-77.804-2.51-75.494-2.16-73.073z M-1.971-71.802c0.31,2.229,0.56,4.53,0.742,6.879c2.06,0.181,4.09,0.421,6.028,0.711
				c-0.25-2.229-0.598-4.4-1.039-6.451C1.929-71.124,0.02-71.502-1.971-71.802z M-1.15-63.692c0.09,1.178,0.149,2.34,0.19,3.53
				c2.04,0.069,4.079,0.169,6.13,0.3c-0.05-1.059-0.14-2.1-0.24-3.13C3.03-63.264,0.99-63.502-1.15-63.692z M11.85-69.242
				c-0.598-2.141-1.31-4.18-2.158-6.11c-2.1-1.16-4.38-2.15-6.81-2.97c0.742,2.08,1.382,4.31,1.9,6.668
				C7.32-70.983,9.7-70.173,11.85-69.242z M8.83-77.202c-0.98-1.99-2.09-3.842-3.32-5.52c-1.801-0.94-3.7-1.731-5.68-2.38
				c0.91,1.6,1.75,3.38,2.489,5.311C4.62-79.082,6.799-78.202,8.83-77.202z M-1.85-85.613c-1.16-0.331-2.34-0.599-3.54-0.81
				c0.59,1.551,1.129,3.291,1.6,5.15c1.598,0.28,3.159,0.631,4.67,1.051c-0.27-0.67-0.56-1.319-0.86-1.96
				C-0.57-83.412-1.18-84.562-1.85-85.613z M-6.85-86.673c-0.989-0.149-2.001-0.271-3.019-0.331c0.24,1.54,0.44,3.252,0.619,5.071
				c1.4,0.09,2.769,0.241,4.121,0.44C-5.649-83.452-6.241-85.182-6.85-86.673z M-9.52-64.153c-1.039-0.03-2.09-0.051-3.158-0.051
				h-0.7c-0.83,0-1.64,0.01-2.46,0.021c-0.03,1.241-0.05,2.509-0.06,3.81c2.15-0.039,4.311-0.039,6.47,0
				C-9.45-61.662-9.49-62.933-9.52-64.153z M-15.57-87.043c-1.001,0.051-2.001,0.15-2.98,0.292c-0.64,1.53-1.209,3.289-1.73,5.229
				c1.351-0.199,2.73-0.348,4.121-0.419C-15.99-83.803-15.791-85.513-15.57-87.043z M-17.06-65.402c0.06-2.43,0.149-4.82,0.26-7.119
				c-1.811,0.09-3.591,0.241-5.33,0.449c-0.3,2.201-0.55,4.531-0.72,6.93C-20.979-65.273-19.04-65.354-17.06-65.402z M-22.94-63.882
				c-0.09,1.199-0.14,2.428-0.19,3.669c1.989-0.079,3.99-0.13,5.98-0.149c0.01-1.26,0.03-2.54,0.06-3.79
				C-19.09-64.104-21.04-64.014-22.94-63.882z M-16.739-73.772c0.131-2.442,0.289-4.761,0.479-6.911
				c-1.48,0.09-2.929,0.25-4.358,0.479c-0.51,2.1-0.95,4.4-1.31,6.842C-20.24-73.562-18.499-73.714-16.739-73.772z M-19.99-86.523
				c-1.149,0.181-2.29,0.43-3.4,0.73c-0.67,1.04-1.289,2.179-1.878,3.42c-0.31,0.66-0.632,1.349-0.912,2.051
				c1.471-0.399,3.002-0.741,4.55-1C-21.139-83.222-20.589-84.972-19.99-86.523z M-26.76-78.852c-0.789,2.069-1.459,4.3-2,6.64
				c1.78-0.4,3.62-0.742,5.52-0.992c0.348-2.408,0.789-4.68,1.27-6.78C-23.61-79.692-25.209-79.322-26.76-78.852z M-24.129-65.053
				c0.17-2.37,0.41-4.659,0.708-6.83c-1.95,0.271-3.84,0.631-5.65,1.06c-0.44,2.06-0.79,4.201-1.04,6.411
				C-28.21-64.662-26.211-64.884-24.129-65.053z M-30.251-63.144c-0.11,1.081-0.198,2.171-0.258,3.281
				c2.039-0.131,4.078-0.23,6.13-0.3c0.038-1.23,0.089-2.43,0.169-3.62C-26.31-63.613-28.32-63.403-30.251-63.144z M-28.26-78.394
				c-2.43,0.79-4.74,1.782-6.87,2.951c-0.802,1.849-1.492,3.819-2.04,5.851c2.17-0.912,4.53-1.68,7.05-2.291
				C-29.609-74.163-28.99-76.343-28.26-78.394z M-37.579-68.023c-0.429,1.679-0.751,3.408-0.989,5.171
				c2.159-0.543,4.58-1.002,7.18-1.382c0.23-2.15,0.551-4.24,0.97-6.249C-33.009-69.814-35.42-68.983-37.579-68.023z
				 M-38.721-61.572c-0.1,0.77-0.178,1.56-0.228,2.349c2.39-0.229,4.778-0.421,7.19-0.569c0.05-1.07,0.13-2.132,0.228-3.171
				C-34.151-62.583-36.57-62.112-38.721-61.572z M-31.53-47.664c-0.1-1.05-0.169-2.12-0.228-3.191
				c-1.65-0.109-3.29-0.258-4.931-0.399c0.17,0.16,0.319,0.331,0.501,0.491l0.008,0.009c1.21,1.07,2.501,2.051,3.85,2.951
				C-32.06-47.752-31.8-47.703-31.53-47.664z M-30.251-47.474c1.9,0.271,3.93,0.512,6.071,0.701c-0.089-1.22-0.14-2.43-0.191-3.671
				c-2.039-0.09-4.09-0.199-6.13-0.321C-30.448-49.652-30.36-48.553-30.251-47.474z M-23.92-43.642
				c-0.06-0.631-0.119-1.26-0.17-1.911c-1.899-0.16-3.75-0.38-5.549-0.62c0.199,0.111,0.399,0.231,0.601,0.34
				c1.14,0.601,2.33,1.131,3.549,1.611C-24.98-44.014-24.45-43.822-23.92-43.642z M-22.94-46.664c1.89,0.15,3.859,0.262,5.919,0.331
				c-0.039-1.419-0.08-2.729-0.101-3.879c-2.009-0.042-4.01-0.09-6.01-0.19C-23.08-49.134-23.02-47.872-22.94-46.664z
				 M-16.89-42.033c-0.05-1.051-0.08-2.082-0.11-3.071c-1.96-0.058-3.93-0.169-5.85-0.329c0.05,0.741,0.13,1.459,0.199,2.179
				c0.211,0.06,0.431,0.14,0.65,0.191c0.699,0.22,1.42,0.389,2.149,0.53l0.01,0.008c0.599,0.141,1.209,0.25,1.84,0.351
				C-17.629-42.114-17.26-42.072-16.89-42.033z M-9.501-45.023c-0.819,0.009-1.629,0.021-2.459,0.021h-0.689
				c-1.03,0-2.082-0.021-3.12-0.051c0.029,1.09,0.068,2.131,0.11,3.15c0.31,0.03,0.619,0.071,0.94,0.081
				c0.41,0.049,0.819,0.06,1.25,0.06c0.4,0.028,0.8,0.039,1.2,0.039c0.19,0,0.39,0,0.58-0.012c0.42,0,0.83-0.009,1.26-0.041
				c0.27-0.008,0.55-0.038,0.819-0.059C-9.57-42.873-9.54-43.924-9.501-45.023z M-9.43-50.162c-2.14,0.01-4.29,0-6.46-0.03
				c0.03,1.34,0.05,2.64,0.09,3.89c1.039,0.03,2.09,0.051,3.17,0.051h0.55c0.87,0,1.742-0.009,2.6-0.021
				C-9.439-47.544-9.43-48.824-9.43-50.162z M-2.46-45.324c-1.881,0.141-3.82,0.22-5.79,0.271c-0.042,1.051-0.071,2.081-0.101,3.111
				c0.351-0.042,0.711-0.069,1.06-0.13c0.559-0.06,1.11-0.162,1.661-0.271c0.75-0.131,1.488-0.289,2.22-0.479
				c0.25-0.06,0.5-0.141,0.739-0.201C-2.591-43.794-2.52-44.544-2.46-45.324z M-2.19-50.303c-1.98,0.059-3.968,0.109-5.98,0.119
				c-0.01,1.289-0.021,2.59-0.06,3.87c2-0.041,3.969-0.141,5.86-0.28C-2.29-47.803-2.24-49.043-2.19-50.303z M-2.07-52.534
				c0.399-0.009,0.8-0.009,1.2-0.02h0.06c1.119-0.021,2.25-0.051,3.37-0.089c0.17,0,0.339-0.012,0.509-0.012l1.009-5.189
				c-0.181,0-0.36-0.009-0.539-0.009c-1.479-0.051-2.939-0.09-4.421-0.13h-0.14c-0.369-0.01-0.75-0.01-1.119-0.021
				c-0.039,0-0.08,0-0.119-0.009c-1.971-0.03-3.94-0.06-5.91-0.072h-0.12c-0.38-0.009-0.75-0.009-1.11-0.009
				c-0.041,0-0.071-0.009-0.11-0.009c-2.15-0.021-4.281-0.021-6.4,0h-0.081c-0.399,0-0.78,0-1.17,0.009h-0.089
				c-1.971,0.021-3.96,0.042-5.93,0.081h-0.072c-0.399,0.009-0.8,0.009-1.2,0.02h-0.05c-2.04,0.05-4.06,0.101-6.09,0.17
				c-0.021,0.009-0.03,0.009-0.051,0.009c-0.411,0.009-0.801,0.021-1.2,0.03h-0.19c-0.23,0.009-0.45,0.021-0.679,0.03l0.849,4.379
				l0.101,0.53c0.006,0.007,0.013,0.01,0.02,0.01c0.2,0.009,0.42,0.009,0.64,0.02c0.17,0,0.34,0.01,0.51,0.021
				c0.039,0,0.08,0,0.119,0.009c2,0.059,4.019,0.119,6.04,0.17h0.11c0.381,0,0.76,0.02,1.141,0.03h0.1
				c1.98,0.05,3.95,0.068,5.93,0.101h0.102c0.38,0,0.759,0.009,1.14,0.009h0.1c2.15,0.021,4.281,0.029,6.41,0.021h1.33
				c1.99-0.009,3.96-0.039,5.94-0.069C-2.111-52.534-2.089-52.534-2.07-52.534z M4.78-46.053c-1.9,0.271-3.9,0.47-5.96,0.641
				c-0.05,0.678-0.12,1.338-0.181,2.009c0.45-0.141,0.899-0.28,1.34-0.449l0.009-0.012c1.2-0.42,2.379-0.92,3.519-1.471l0.01-0.02
				c0.431-0.2,0.84-0.45,1.259-0.679v-0.02H4.78z M5.18-50.652c-2.031,0.139-4.07,0.22-6.11,0.299c-0.03,1.25-0.09,2.481-0.181,3.68
				c2.099-0.169,4.12-0.38,6.029-0.639C5.03-48.414,5.12-49.534,5.18-50.652z M6.06-64.044c2.57,0.412,4.981,0.891,7.17,1.451
				c-0.25-1.772-0.581-3.511-0.991-5.202c-2.159-0.979-4.57-1.827-7.17-2.53C5.5-68.312,5.82-66.203,6.06-64.044z M12.06-51.152
				c-1.87,0.16-3.751,0.308-5.621,0.419c-0.05,1.09-0.14,2.171-0.241,3.24c0.47-0.069,0.93-0.141,1.39-0.22
				c0.37-0.242,0.739-0.462,1.102-0.712l0.009-0.02C9.88-49.273,11-50.194,12.06-51.152z M10.149-52.904
				c0.26-0.009,0.51-0.019,0.772-0.028l0.86-4.402l0.039-0.22c-0.259-0.02-0.53-0.03-0.789-0.041
				c-0.801-0.038-1.581-0.068-2.37-0.101L8.64-57.594l-0.92,4.791C8.53-52.832,9.341-52.862,10.149-52.904z M13.58-59.262
				c-0.041-0.692-0.11-1.382-0.19-2.051c-2.11-0.56-4.531-1.069-7.19-1.481c0.101,0.989,0.17,1.99,0.22,3.002
				C8.8-59.653,11.19-59.473,13.58-59.262z M14.53-62.252c1.84,0.509,3.48,1.069,4.91,1.69c0.13-0.25,0.27-0.491,0.399-0.729
				c-0.08-0.649-0.16-1.292-0.28-1.921c-1.59-1.429-3.579-2.739-5.889-3.89C14.03-65.532,14.319-63.903,14.53-62.252z M18.43-58.813
				c0.14-0.22,0.271-0.449,0.411-0.679c-1.191-0.51-2.57-1.01-4.15-1.459c0.071,0.599,0.119,1.19,0.149,1.8
				C16.04-59.054,17.23-58.933,18.43-58.813z M21.43-57.054c-0.23-0.02-0.459-0.041-0.7-0.049c-0.161-0.009-0.339-0.022-0.509-0.03
				c-0.021,0-0.042,0-0.06-0.009c-0.84-0.042-1.69-0.09-2.54-0.132l-0.119,0.62l-0.619,3.201l-0.042,0.211
				c1.129-0.06,2.272-0.111,3.391-0.192h0.059c0.39-0.028,0.78-0.049,1.191-0.079c0.03-0.009,0.06-0.009,0.089-0.009
				c0.081,0,0.17-0.01,0.242-0.01c0.22-0.01,0.44-0.03,0.66-0.05c0.22-0.01,0.45-0.03,0.66-0.039c0.06-0.34,0.09-0.741,0.11-1.141
				c0.01-0.199,0.022-0.4,0.022-0.61c0-0.429-0.022-0.86-0.06-1.251v-0.009c-0.021-0.1-0.021-0.22-0.042-0.319
				c-0.09,0-0.19-0.009-0.289-0.009c-0.119-0.009-0.229-0.021-0.351-0.021c-0.17-0.021-0.34-0.029-0.52-0.029
				c-0.17-0.01-0.34-0.03-0.51-0.03C21.47-57.054,21.449-57.054,21.43-57.054z M21.28-64.472c-0.34-0.611-0.711-1.21-1.12-1.801
				c0.23,0.84,0.41,1.69,0.56,2.56c0.06,0.051,0.119,0.109,0.17,0.169C21.03-63.854,21.16-64.162,21.28-64.472z M18.42-71.663
				c0.301,0.731,0.58,1.46,0.819,2.231c0.37,0.41,0.72,0.84,1.06,1.27c-0.211-0.55-0.44-1.089-0.679-1.631
				C19.24-70.423,18.85-71.052,18.42-71.663z M18.12-68.823c-1.819-2.051-4.09-3.9-6.669-5.49c0.741,1.831,1.351,3.74,1.881,5.731
				c2.23,1.051,4.2,2.25,5.86,3.55C18.9-66.323,18.55-67.583,18.12-68.823z M7.891-81.392c1.021,1.61,1.95,3.34,2.76,5.18
				c2.42,1.34,4.59,2.9,6.469,4.63c-0.56-1.382-1.2-2.71-1.929-4C13.07-77.792,10.61-79.753,7.891-81.392z M4.009-86.513
				c0.801,0.881,1.57,1.81,2.301,2.801c2.29,1.18,4.421,2.581,6.371,4.141c-0.42-0.601-0.881-1.19-1.349-1.771l-0.101-0.09
				c-2.019-1.86-4.311-3.5-6.77-4.849l-0.17-0.09C4.2-86.423,4.1-86.462,4.009-86.513z M-3.029-89.252
				c0.649,0.78,1.28,1.62,1.881,2.549c1.69,0.491,3.329,1.081,4.909,1.771c-0.959-1.129-1.979-2.15-3.06-3.07
				C-0.51-88.483-1.76-88.912-3.029-89.252z M-7.09-90.082c0.4,0.699,0.78,1.46,1.14,2.289c1.04,0.171,2.06,0.381,3.06,0.631
				c-0.69-0.959-1.41-1.81-2.149-2.56C-5.72-89.862-6.401-89.983-7.09-90.082z M-10.49-90.422c0.15,0.66,0.29,1.379,0.42,2.159
				c0.881,0.051,1.75,0.12,2.6,0.25c-0.4-0.87-0.82-1.629-1.26-2.289C-9.31-90.362-9.9-90.392-10.49-90.422z M-14.11-88.353
				c0.459-0.029,0.911-0.029,1.379-0.029c0.461,0,0.92,0.02,1.391,0.041c-0.14-0.81-0.271-1.521-0.411-2.15
				c-0.661-0.009-1.319,0.009-1.98,0.039C-13.86-89.844-13.979-89.152-14.11-88.353z M-14.879-82.014
				c0.67-0.03,1.348-0.05,2.03-0.05h0.318c0.67,0,1.34,0.03,2.001,0.05c-0.199-1.919-0.399-3.609-0.631-5.078
				c-0.52-0.021-1.05-0.03-1.569-0.03h-0.28c-0.419,0-0.86,0.009-1.289,0.03C-14.509-85.634-14.708-83.933-14.879-82.014z
				 M-17.98-88.073c0.86-0.119,1.73-0.19,2.61-0.229c0.11-0.759,0.242-1.46,0.382-2.099c-0.602,0.049-1.2,0.1-1.802,0.169
				C-17.2-89.594-17.6-88.872-17.98-88.073z M-22.339-87.342c0.961-0.22,1.929-0.412,2.911-0.551c0.34-0.759,0.679-1.451,1.04-2.099
				c-0.68,0.109-1.37,0.22-2.04,0.38C-21.08-88.942-21.72-88.182-22.339-87.342z M-29.12-85.173c1.59-0.679,3.239-1.25,4.939-1.699
				c0.5-0.771,1.01-1.491,1.551-2.15c-1.51,0.458-2.971,1.02-4.4,1.68c-0.22,0.208-0.45,0.419-0.67,0.639
				C-28.18-86.212-28.66-85.703-29.12-85.173z M-30.86-83.014c-1.28,1.75-2.42,3.671-3.42,5.72c2.07-1.01,4.26-1.881,6.559-2.59
				c0.411-1.051,0.851-2.06,1.31-3.031c0.399-0.839,0.819-1.619,1.251-2.369C-27.131-84.682-29.04-83.923-30.86-83.014z
				 M-35.099-82.032c1.111-0.711,2.251-1.391,3.441-1.98c0.38-0.52,0.79-1.02,1.2-1.51C-32.1-84.502-33.649-83.333-35.099-82.032z
				 M-42.22-72.013c1.801-1.611,3.859-3.052,6.1-4.3c0.84-1.919,1.801-3.719,2.88-5.409c-2.412,1.419-4.642,3.099-6.63,5.029
				C-40.75-75.202-41.538-73.642-42.22-72.013z M-44.349-65.604c1.641-1.238,3.549-2.37,5.71-3.36c0.479-1.87,1.06-3.701,1.73-5.452
				c-2.069,1.292-3.951,2.74-5.579,4.351c-0.272,0.27-0.53,0.539-0.78,0.82C-43.69-68.062-44.049-66.842-44.349-65.604z
				 M-44.98-62.493c0.22,0.479,0.462,0.961,0.7,1.43c1.29-0.53,2.769-1.022,4.4-1.471c0.209-1.628,0.5-3.239,0.849-4.81
				c-2.239,1.089-4.179,2.34-5.749,3.709C-44.849-63.252-44.92-62.873-44.98-62.493z M-42.11-53.332l-0.08-0.391l-0.62-3.189
				l-0.068-0.359c-0.89,0.059-1.78,0.109-2.662,0.169c-0.03,0-0.06,0.009-0.09,0.009c-0.39,0.009-0.78,0.03-1.17,0.072h-0.11
				c-0.038,0-0.1,0-0.14,0.009c-0.16,0.02-0.348,0.02-0.53,0.039c-0.029,0.289-0.05,0.63-0.058,0.97c-0.01,0.41,0,0.84,0.02,1.25
				c0.02,0.391,0.05,0.771,0.09,1.102c0.19,0.019,0.39,0.03,0.589,0.041c0.041,0,0.081,0,0.119,0.008h0.19
				c0.36,0.03,0.721,0.06,1.081,0.072h0.021C-44.38-53.462-43.25-53.392-42.11-53.332z M-30.55-23.204l-0.06-0.479h-5.31l0.19,2.72
				l0.11,1.65c1.89,0.06,3.722,0.101,5.52,0.141l-0.27-2.37l-0.01-0.171L-30.55-23.204z M11.55,33.937c0,0,0.39-0.59,0.83-1.43
				c0.462-0.84,0.76-1.988,0.911-2.9c0.131-0.919,0.119-2.099,0.021-3.039c-0.09-0.93-0.25-1.62-0.25-1.62
				c-0.021-0.09-0.58-0.041-0.59,0.051c0,0,0,0.69-0.11,1.569c-0.101,0.889-0.321,1.96-0.5,2.789
				c-0.161,0.831-0.431,1.882-0.59,2.75c-0.181,0.87-0.39,1.521-0.39,1.521C10.89,33.726,11.44,33.997,11.55,33.937z
				 M10.929,108.175c0.23-0.47,0.42-1.101,0.471-1.61c0.05-0.509-0.009-1.17-0.11-1.679c-0.09-0.509-0.209-0.881-0.209-0.881
				c-0.02-0.051-0.47,0-0.48,0.05c0,0-0.02,0.37-0.1,0.852c-0.072,0.47-0.221,1.039-0.322,1.47c-0.089,0.44-0.181,1-0.259,1.46
				c-0.08,0.47-0.14,0.829-0.14,0.829c0.03,0.06,0.59,0.31,0.67,0.289C10.449,108.955,10.69,108.647,10.929,108.175z M6.29,111.927
				c0,0,0.56-0.602,1.2-1.5c0.58-0.921,1.149-2.18,1.42-3.21c0.13-0.53,0.259-1.12,0.28-1.742c0.03-0.61,0-1.229-0.042-1.771
				c-0.08-1.089-0.24-1.89-0.24-1.89c-0.03-0.1-0.581-0.071-0.601,0.039c0,0-0.03,0.789-0.22,1.79c-0.2,1.01-0.581,2.2-0.801,3.14
				c-0.241,0.93-0.58,2.129-0.94,3.081c-0.161,0.479-0.301,0.911-0.42,1.21c-0.131,0.299-0.2,0.479-0.2,0.479
				C5.709,111.677,6.16,111.976,6.29,111.927z M12.7,89.116c0,0,0.24-0.53,0.5-1.26c0.25-0.729,0.39-1.68,0.429-2.419
				c0.06-1.511-0.349-3.782-0.349-3.782c-0.021-0.071-0.381-0.05-0.39,0.03c0,0-0.01,0.56-0.101,1.289
				c-0.08,0.741-0.25,1.641-0.369,2.34c-0.11,0.7-0.25,1.581-0.31,2.311c-0.06,0.729-0.11,1.3-0.11,1.3
				C12.02,89.006,12.61,89.166,12.7,89.116z M7.63,33.988c0,0,0.559-0.852,1.08-2.12c0.241-0.632,0.52-1.352,0.62-2.111
				c0.14-0.75,0.179-1.509,0.179-2.171c-0.039-1.34-0.381-3.009-0.819-4.268c-0.42-1.271-0.89-2.15-0.89-2.15
				c-0.06-0.12-0.521,0.049-0.491,0.178c0,0,0.289,0.93,0.431,2.192c0.149,1.25,0.08,2.798-0.051,3.979
				c-0.069,0.59-0.13,1.26-0.241,1.93c-0.11,0.67-0.19,1.349-0.3,1.96c-0.229,1.209-0.53,2.11-0.53,2.11
				c0.009,0.149,0.849,0.559,1.01,0.47v0.001H7.63z"/>
		</g>
	</g>
</g>
<g id="tagline-3d7079d5-c06d-4345-83ce-84f2acd8ece1-logo-0" transform="matrix(0.06289932726463202 1.9201238957997924 -1.9201238957997926 0.06289932726463202 374.2533665823405 556.0097803001933)">
	<g>
		<g id="_x36_c2acdee-5e5a-4ff6-bacd-03a595e28919-path-0" transform="matrix(1 0 0 1 0 0)">
			<path fill="#9CB1C8" d="M11.642,13.238l-4.19,0l0-13.07l8,0c0.7,0,1.337,0.106,1.91,0.32c0.568,0.22,1.03,0.513,1.39,0.88
				c0.353,0.374,0.627,0.8,0.82,1.28c0.187,0.48,0.28,0.99,0.28,1.53l0,0c0,0.786-0.216,1.506-0.65,2.16
				c-0.427,0.647-1.05,1.123-1.872,1.43l0,0l2.9,5.47l-4.71,0l-2.32-4.77l-1.56,0L11.642,13.238z M11.642,3.157l0,2.41l2.76,0
				c0.327,0,0.603-0.117,0.83-0.35c0.232-0.233,0.35-0.523,0.35-0.87c0-0.347-0.118-0.633-0.35-0.86
				c-0.227-0.22-0.503-0.33-0.83-0.33l0,0L11.642,3.157z"/>
		</g>
	</g>
</g>
<g id="tagline-3d7079d5-c06d-4345-83ce-84f2acd8ece1-logo-1" transform="matrix(0.38724307599547597 1.8817212600928115 -1.8817212600928117 0.387243075995476 379.9701272143514 603.6988478966496)">
	<g>
		<g id="_x38_00bd07c-7bd5-4edb-9de4-46a9fc66660c-path-0" transform="matrix(1 0 0 1 0 0)">
			<path fill="#9CB1C8" d="M9.585,15.485l-4.29,0l4.77-13.07l4.88,0l4.77,13.07l-4.44,0l-0.56-1.85l-4.57,0L9.585,15.485z
				 M12.396,6.055l-1.38,4.66l2.83,0l-1.36-4.66L12.396,6.055z"/>
		</g>
	</g>
</g>
<g id="tagline-3d7079d5-c06d-4345-83ce-84f2acd8ece1-logo-2" transform="matrix(0.7003945993977491 1.7889325045194362 -1.7889325045194362 0.7003945993977491 394.02510069456844 650.9696176114162)">
	<g>
		<g id="_x38_047b265-9887-4aa5-9da2-ebcff8c93e96-path-0" transform="matrix(1 0 0 1 0 0)">
			<path fill="#9CB1C8" d="M10.209,17.473l-5.66,0l0-13.07l5.66,0c4.573,0,6.86,2.176,6.86,6.53l0,0
				C17.069,15.293,14.782,17.473,10.209,17.473L10.209,17.473z M8.739,7.533l0,6.8l1.4,0c1.753,0,2.63-0.944,2.63-2.83l0,0l0-1.14
				c0-1.887-0.876-2.83-2.63-2.83l0,0L8.739,7.533z"/>
		</g>
	</g>
</g>
<g id="tagline-3d7079d5-c06d-4345-83ce-84f2acd8ece1-logo-3" transform="matrix(0.9492042095682415 1.6702824519013677 -1.670282451901368 0.9492042095682416 411.57122922815967 687.6701426509228)">
	<g>
		<g id="_x35_30ffbf3-2058-4775-9d94-58c82f6ed1aa-path-0" transform="matrix(1 0 0 1 0 0)">
			<path fill="#9CB1C8" d="M11.232,18.907l-4.2,0l0-13.07l4.2,0L11.232,18.907z"/>
		</g>
	</g>
</g>
<g id="tagline-3d7079d5-c06d-4345-83ce-84f2acd8ece1-logo-4" transform="matrix(1.1841569830105696 1.5128133857746704 -1.5128133857746704 1.1841569830105698 435.0922094292571 722.7588168479471)">
	<g>
		<g id="_x39_ded69ac-5716-472a-bb42-e8d85bf60ddc-path-0" transform="matrix(1 0 0 1 0 0)">
			<path fill="#9CB1C8" d="M1.996,18.614c-1.227-1.153-1.84-2.833-1.84-5.04c0-2.207,0.613-3.886,1.84-5.04
				c1.22-1.147,2.957-1.72,5.21-1.72c2.26,0,4.003,0.573,5.23,1.72c1.226,1.153,1.84,2.833,1.84,5.04s-0.614,3.887-1.84,5.04
				c-1.226,1.154-2.97,1.731-5.23,1.73l0,0C4.96,20.344,3.223,19.769,1.996,18.614z M4.457,12.976l0,1.21
				c0,0.926,0.234,1.664,0.7,2.21c0.473,0.547,1.157,0.82,2.05,0.82c0.9,0,1.587-0.273,2.06-0.82c0.48-0.553,0.72-1.29,0.72-2.21
				l0,0l0-1.21c0-0.927-0.24-1.663-0.719-2.21c-0.474-0.546-1.16-0.82-2.06-0.82c-0.893,0-1.577,0.273-2.05,0.82
				C4.69,11.306,4.457,12.042,4.457,12.976L4.457,12.976z"/>
		</g>
	</g>
</g>
<g id="tagline-3d7079d5-c06d-4345-83ce-84f2acd8ece1-logo-5" transform="matrix(0.7227275100817967 0.6911330886095427 -0.6911330886095427 0.7227275100817967 230.4984173142517 392.49938222416773)">
	<g>
		<g id="_x39_700364f-7fc3-4053-801f-b6dc044bc10d-path-0" transform="matrix(1 0 0 1 0 0)">
			<path fill="#9CB1C8" d="M7.915,25.635"/>
		</g>
	</g>
</g>
<g id="tagline-3d7079d5-c06d-4345-83ce-84f2acd8ece1-logo-6" transform="matrix(1.560003538107912 1.1212586952539148 -1.121258695253915 1.560003538107912 493.5979114400734 778.9121193222866)">
	<g>
		<g id="_x36_cd8c7e7-23fd-4c78-8066-14df081463a3-path-0" transform="matrix(1 0 0 1 0 0)">
			<path fill="#9CB1C8" d="M-1.69,20.111c-1.147-1.14-1.72-2.828-1.72-5.06c-0.001-2.233,0.573-3.92,1.72-5.06
				c1.147-1.133,2.836-1.7,5.07-1.7l0,0c1.934,0.001,3.463,0.487,4.59,1.46c1.133,0.973,1.7,2.357,1.7,4.15l0,0l-4.01,0
				c0-0.766-0.2-1.37-0.6-1.81c-0.4-0.447-0.967-0.67-1.7-0.67l0,0c-1.647,0-2.47,1.01-2.47,3.03l0,0l-0.001,1.21
				c0,0.94,0.2,1.68,0.6,2.22c0.4,0.54,1.01,0.81,1.83,0.81l0,0c0.807,0,1.42-0.21,1.84-0.63c0.42-0.42,0.63-1.01,0.63-1.77l0,0
				l3.88,0c0,1.787-0.55,3.157-1.65,4.11c-1.094,0.947-2.64,1.42-4.64,1.42l0,0C1.147,21.821-0.542,21.251-1.69,20.111z"/>
		</g>
	</g>
</g>
<g id="tagline-3d7079d5-c06d-4345-83ce-84f2acd8ece1-logo-7" transform="matrix(1.727391394908741 0.8408038233660389 -0.840803823366039 1.7273913949087412 536.216396850595 804.2702673183975)">
	<g>
		<g id="b318c625-d8bc-4aea-89de-d58a5640884b-path-0" transform="matrix(1 0 0 1 0 0)">
			<path fill="#9CB1C8" d="M-1.665,21.904l-4.19,0l0-13.07l8,0c0.7,0,1.337,0.107,1.91,0.32c0.567,0.22,1.03,0.514,1.39,0.88
				c0.353,0.373,0.627,0.8,0.82,1.28c0.187,0.48,0.28,0.99,0.28,1.53l0,0c0,0.786-0.217,1.506-0.65,2.158
				c-0.427,0.647-1.05,1.124-1.87,1.43l0,0l2.9,5.47l-4.71,0.001l-2.32-4.77l-1.56,0L-1.665,21.904z M-1.665,11.825l0,2.41l2.76,0
				c0.327,0,0.603-0.117,0.83-0.35c0.233-0.233,0.35-0.523,0.35-0.87c0-0.347-0.117-0.633-0.35-0.86
				c-0.226-0.22-0.503-0.33-0.83-0.33l0,0L-1.665,11.825z"/>
		</g>
	</g>
</g>
<g id="tagline-3d7079d5-c06d-4345-83ce-84f2acd8ece1-logo-8" transform="matrix(1.8299401028150741 0.5849370228502144 -0.5849370228502145 1.8299401028150744 573.7593775653992 819.2519954278475)">
	<g>
		<g id="_x33_da1495e-5575-4fbe-8b0a-ace63fb66478-path-0" transform="matrix(1 0 0 1 0 0)">
			<path fill="#9CB1C8" d="M0.43,21.824l-4.2,0l0-13.07l4.2,0L0.43,21.824z"/>
		</g>
	</g>
</g>
<g id="tagline-3d7079d5-c06d-4345-83ce-84f2acd8ece1-logo-9" transform="matrix(1.8936125096639265 0.3241354097225433 -0.32413540972254334 1.8936125096639267 612.8166947373696 828.776151327929)">
	<g>
		<g id="_x36_a23f32b-1d17-43dc-a3e0-dac60cf23a1c-path-0" transform="matrix(1 0 0 1 0 0)">
			<path fill="#9CB1C8" d="M-9.891,17.011L-9.891,17.011l3.97,0c0,0.66,0.17,1.1,0.51,1.32c0.347,0.227,0.877,0.34,1.59,0.34l0,0
				c0.24,0,0.446-0.01,0.62-0.03c0.173-0.014,0.366-0.047,0.58-0.1c0.213-0.053,0.373-0.143,0.48-0.27
				c0.113-0.127,0.17-0.287,0.17-0.48l0,0c0-0.194-0.09-0.364-0.27-0.51c-0.174-0.147-0.407-0.263-0.7-0.35
				c-0.3-0.093-0.643-0.18-1.03-0.26c-0.387-0.08-0.793-0.166-1.22-0.26c-0.427-0.1-0.853-0.21-1.28-0.33
				c-0.42-0.127-0.823-0.293-1.21-0.5c-0.387-0.207-0.73-0.45-1.03-0.73c-0.293-0.274-0.53-0.627-0.71-1.062
				c-0.174-0.432-0.26-0.923-0.26-1.47l0,0c0-0.733,0.157-1.377,0.47-1.93c0.32-0.554,0.757-0.991,1.31-1.31
				c0.553-0.319,1.17-0.557,1.85-0.71c0.687-0.153,1.43-0.23,2.23-0.23c0.807,0,1.55,0.08,2.23,0.24c0.686,0.16,1.293,0.4,1.82,0.72
				c0.533,0.32,0.953,0.742,1.26,1.27c0.3,0.52,0.457,1.12,0.47,1.8l0,0l0,0.22l-3.93,0l0-0.07c0.001-0.38-0.14-0.696-0.42-0.95
				c-0.28-0.253-0.703-0.38-1.27-0.38l0,0c-0.547,0-0.973,0.084-1.28,0.25c-0.3,0.167-0.45,0.37-0.45,0.61l0,0
				c0,0.2,0.087,0.377,0.26,0.53c0.173,0.153,0.407,0.277,0.7,0.37c0.3,0.093,0.64,0.177,1.02,0.25c0.38,0.079,0.78,0.163,1.2,0.248
				c0.427,0.093,0.85,0.197,1.27,0.311c0.427,0.12,0.833,0.277,1.22,0.47c0.386,0.193,0.73,0.42,1.03,0.68
				c0.3,0.26,0.54,0.597,0.72,1.01c0.187,0.407,0.284,0.87,0.29,1.39l0,0c0,0.634-0.093,1.207-0.28,1.72
				c-0.193,0.507-0.46,0.936-0.8,1.29c-0.334,0.346-0.744,0.636-1.23,0.87c-0.486,0.24-1.016,0.413-1.59,0.52
				c-0.567,0.107-1.187,0.16-1.86,0.161l0,0c-0.774-0.001-1.467-0.04-2.08-0.121c-0.613-0.087-1.2-0.237-1.76-0.45
				c-0.56-0.214-1.027-0.494-1.4-0.84c-0.373-0.347-0.67-0.793-0.89-1.34C-9.784,18.374-9.891,17.737-9.891,17.011z"/>
		</g>
	</g>
</g>
<g id="tagline-3d7079d5-c06d-4345-83ce-84f2acd8ece1-logo-10" transform="matrix(1.921109139626065 0.01310626708545798 -0.013106267085457982 1.9211091396260653 659.0882226378807 832.8665282847802)">
	<g>
		<g id="_x38_5400c98-4ba2-48a2-9ab8-0f37d94279f8-path-0" transform="matrix(1 0 0 1 0 0)">
			<path fill="#9CB1C8" d="M-8.241,10.901l-4.29,0l0-3.34l12.76,0l0,3.34l-4.27,0l0,9.732l-4.2,0L-8.241,10.901z"/>
		</g>
	</g>
</g>
<g id="tagline-3d7079d5-c06d-4345-83ce-84f2acd8ece1-logo-11" transform="matrix(1.9041791791692402 -0.25482102387769096 0.25482102387769096 1.9041791791692402 699.2372507310149 830.3314331887578)">
	<g>
		<g id="_x38_b71a60a-d535-4118-b938-072e2d90c320-path-0" transform="matrix(1 0 0 1 0 0)">
			<path fill="#9CB1C8" d="M-5.955,19.636l-4.2,0l0-13.07l4.2,0L-5.955,19.636z"/>
		</g>
	</g>
</g>
<g id="tagline-3d7079d5-c06d-4345-83ce-84f2acd8ece1-logo-12" transform="matrix(1.8481101196737177 -0.5247104784081531 0.5247104784081532 1.848110119673718 739.5568488186203 821.9523489750275)">
	<g>
		<g id="_x36_aa14abb-687a-478e-9465-0ca51311f7a2-path-0" transform="matrix(1 0 0 1 0 0)">
			<path fill="#9CB1C8" d="M-12.767,18.349l-4.29,0l4.77-13.07l4.88-0.001l4.77,13.07l-4.44,0l-0.56-1.85l-4.57,0L-12.767,18.349z
				 M-9.957,8.919l-1.38,4.66l2.83,0l-1.36-4.66L-9.957,8.919z"/>
		</g>
	</g>
</g>
<g id="tagline-3d7079d5-c06d-4345-83ce-84f2acd8ece1-logo-13" transform="matrix(1.7293940954734426 -0.8366768570561216 0.8366768570561216 1.7293940954734426 786.1571508775432 804.217647147437)">
	<g>
		<g id="c595e1e4-5f15-44f6-82a1-3db3729c7b7c-path-0" transform="matrix(1 0 0 1 0 0)">
			<path fill="#9CB1C8" d="M-14.399,16.466l-3.85,0l0-13.07l3.66,0l5.5,6.44l0-6.44l3.85,0l0,13.07l-3.671,0l-5.49-6.35
				L-14.399,16.466z"/>
		</g>
	</g>
</g>
<g id="tagline-3d7079d5-c06d-4345-83ce-84f2acd8ece1-logo-14" transform="matrix(1.5600035381079116 -1.1212586952539156 1.121258695253916 1.560003538107912 828.6904761801204 778.8946326197624)">
	<g>
		<g id="_x30_868e9cb-f99a-47cb-a267-edb10db0567c-path-0" transform="matrix(1 0 0 1 0 0)">
			<path fill="#9CB1C8" d="M-16.195,14.301l-4.29,0l4.77-13.07l4.88,0l4.77,13.07l-4.44,0l-0.56-1.85l-4.571,0L-16.195,14.301z
				 M-13.385,4.871l-1.38,4.66l2.83,0l-1.36-4.66L-13.385,4.871z"/>
		</g>
	</g>
</g>
<g id="tagline-3d7079d5-c06d-4345-83ce-84f2acd8ece1-logo-15" transform="matrix(0.7227275100817967 -0.6911330886095427 0.6911330886095427 0.7227275100817967 446.0689895420976 388.13347687260523)">
	<g>
		<g id="d8e9c121-05a7-4bde-90d6-4797341568d3-path-0" transform="matrix(1 0 0 1 0 0)">
			<path fill="#9CB1C8" d="M-27.333,11.22"/>
		</g>
	</g>
</g>
<g id="tagline-3d7079d5-c06d-4345-83ce-84f2acd8ece1-logo-16" transform="matrix(1.1898249724448133 -1.5083595842962696 1.5083595842962696 1.1898249724448133 887.0059468902973 722.970927970148)">
	<g>
		<g id="_x34_1354ce5-603e-4e06-b8c4-ebdf982a0195-path-0" transform="matrix(1 0 0 1 0 0)">
			<path fill="#9CB1C8" d="M-17.103,10.334l-4.19,0l0-13.07l8,0c0.7,0,1.337,0.106,1.91,0.32c0.567,0.22,1.029,0.514,1.39,0.88
				c0.353,0.373,0.627,0.8,0.82,1.28c0.187,0.48,0.28,0.99,0.28,1.53l0,0c0,0.787-0.217,1.507-0.65,2.16
				c-0.427,0.647-1.05,1.123-1.87,1.43l0,0l2.9,5.47l-4.71,0.001l-2.32-4.771l-1.56,0L-17.103,10.334z M-17.103,0.254l0,2.41l2.76,0
				c0.326,0,0.603-0.117,0.83-0.35c0.233-0.233,0.35-0.523,0.35-0.87c0-0.347-0.117-0.633-0.35-0.86
				c-0.227-0.219-0.503-0.329-0.83-0.33l0,0L-17.103,0.254z"/>
		</g>
	</g>
</g>
<g id="tagline-3d7079d5-c06d-4345-83ce-84f2acd8ece1-logo-17" transform="matrix(0.9171272862884854 -1.688108302608821 1.6881083026088213 0.9171272862884855 913.3823329110251 682.8292515489879)">
	<g>
		<g id="_x37_180db73-9e38-4da9-857b-6478e5bf9623-path-0" transform="matrix(1 0 0 1 0 0)">
			<path fill="#9CB1C8" d="M-18.253,7.756l-4.29,0l4.77-13.07l4.88,0l4.771,13.07l-4.44,0l-0.56-1.85l-4.57,0L-18.253,7.756z
				 M-15.442-1.675l-1.38,4.66l2.83,0l-1.36-4.66L-15.442-1.675z"/>
		</g>
	</g>
</g>
<g id="tagline-3d7079d5-c06d-4345-83ce-84f2acd8ece1-logo-18" transform="matrix(0.6179224890192367 -1.8190667657224642 1.8190667657224644 0.6179224890192367 933.1112177158709 637.630687391998)">
	<g>
		<g id="_x39_3901a12-dca5-4ddf-8b30-46ebfd5bbaca-path-0" transform="matrix(1 0 0 1 0 0)">
			<path fill="#9CB1C8" d="M-15.917,5.141l-5.662,0l0-13.07l5.662,0c4.573,0,6.859,2.178,6.86,6.53l0,0
				C-9.058,2.961-11.344,5.141-15.917,5.141L-15.917,5.141z M-17.387-4.799l0,6.8l1.4,0c1.753,0,2.63-0.943,2.63-2.83l0,0l0-1.14
				c0-1.886-0.877-2.83-2.63-2.83l0,0L-17.387-4.799z"/>
		</g>
	</g>
</g>
<g id="tagline-3d7079d5-c06d-4345-83ce-84f2acd8ece1-logo-19" transform="matrix(0.3512300221335083 -1.8887746218497883 1.8887746218497885 0.35123002213350835 943.3603463332392 598.2635877746087)">
	<g>
		<g id="bb58247c-2961-4b22-afc9-4cc64bedfb41-path-0" transform="matrix(1 0 0 1 0 0)">
			<path fill="#9CB1C8" d="M-12.86,2.963l-4.2,0l0-13.07l4.2,0L-12.86,2.963z"/>
		</g>
	</g>
</g>
<g id="tagline-3d7079d5-c06d-4345-83ce-84f2acd8ece1-logo-20" transform="matrix(0.07010350584604315 -1.9198743706450714 1.9198743706450716 0.07010350584604316 947.9999549303104 556.2794188288049)">
	<g>
		<g id="f71ee8fb-6842-458e-8c1a-451354b5e537-path-0" transform="matrix(1 0 0 1 0 0)">
			<path fill="#9CB1C8" d="M-19.494-0.694c-1.226-1.153-1.84-2.833-1.84-5.04c0-2.207,0.614-3.887,1.84-5.04
				c1.22-1.146,2.957-1.72,5.21-1.72c2.26,0,4.003,0.573,5.23,1.72c1.227,1.153,1.84,2.833,1.84,5.04s-0.613,3.887-1.84,5.04
				c-1.226,1.153-2.969,1.73-5.23,1.73l0,0C-16.53,1.036-18.267,0.459-19.494-0.694z M-17.034-6.335l-0.001,1.21
				c0,0.926,0.234,1.663,0.7,2.21c0.473,0.546,1.157,0.82,2.05,0.82c0.9,0,1.587-0.274,2.06-0.82c0.48-0.554,0.72-1.29,0.72-2.21
				l0,0l0-1.21c0-0.927-0.24-1.663-0.72-2.21c-0.473-0.546-1.16-0.82-2.059-0.82c-0.893,0-1.577,0.274-2.05,0.82
				C-16.8-8.005-17.034-7.268-17.034-6.335L-17.034-6.335z"/>
		</g>
	</g>
</g>
<g id="shape-8d43d9fc-2ec0-4a46-83b1-527b126bb5b4" transform="matrix(0.266732191726451 -0.0046558277250309974 0.004655827725030996 0.26673219172645096 376.13128689361093 512.0364625155121)">
	<g>
		<g id="decoration-5" transform="matrix(1 0 0 1 0 0)">
			<path fill="#1C72D4" d="M53.194,103.419c-46.123-24.61-97.28,3.841-97.28,3.841c-80.142,35.773-102.603-24.044-102.603-24.044
				c6.223,12,33.001,43.881,92.29,11.412C4.894,62.16,53.194,103.419,53.194,103.419z M-59.548,91.16c0,0-53.389,17.48-76.309-4.298
				c0,0,22.998,34.07,76.308,4.338 M-28.247,110.162c0,0,47.819-15.509,76.428-2.327C48.181,107.835,16.562,84.602-28.247,110.162"
				/>
		</g>
	</g>
</g>
<g id="shape-191d0d62-4e3b-4909-92ed-13e2d91e3087" transform="matrix(0.266732191726451 -0.0046558277250309974 0.004655827725030996 0.26673219172645096 956.3383184527381 512.0364625155121)">
	<g>
		<g id="decoration-5_1_" transform="matrix(1 0 0 1 0 0)">
			<path fill="#1C72D4" d="M53.194,103.419c-46.123-24.61-97.28,3.841-97.28,3.841c-80.142,35.77-102.603-24.044-102.603-24.044
				c6.223,12,33.001,43.881,92.29,11.412C4.894,62.16,53.194,103.419,53.194,103.419z M-59.547,91.16c0,0-53.389,17.48-76.309-4.298
				c0,0,22.998,34.07,76.308,4.338 M-28.246,110.162c0,0,47.819-15.509,76.428-2.327C48.182,107.835,16.563,84.602-28.246,110.162"
				/>
		</g>
	</g>
</g>
</svg>
